<svg width="32" height="27" viewBox="0 0 32 27" fill="none" xmlns="http://www.w3.org/2000/svg">
<path d="M19.9686 21.6882C20.0237 22.031 20.0237 22.3675 19.9747 22.6858C19.8279 22.8204 19.681 22.7837 19.5402 22.7837C13.9835 22.7898 8.42072 22.7898 2.86402 22.7898C1.24842 22.7898 0 21.5414 0 19.9258C0 15.3788 0 10.8258 0.00611971 6.2727C0.00611971 4.6571 1.25454 3.4148 2.87014 3.40868C4.63874 3.40256 6.40122 3.40868 8.16981 3.40868C8.3228 3.40868 8.4758 3.40868 8.57983 3.40868C8.7573 3.28628 8.77566 3.13941 8.82462 3.0109C9.10001 2.19086 9.36928 1.37081 9.64466 0.550774C9.79153 0.110155 9.94453 0 10.3913 0C12.9615 0 15.5379 0 18.1082 0.00611971C18.5611 0.00611971 18.7202 0.116274 18.8671 0.550774C19.1363 1.35858 19.3934 2.1725 19.6565 2.98642C19.6993 3.12105 19.7238 3.26181 19.834 3.37196C19.9747 3.4454 20.1338 3.42092 20.2868 3.42092C22.0432 3.42092 23.7934 3.42092 25.5498 3.42704C27.2511 3.43316 28.475 4.64486 28.475 6.3339C28.4811 8.81238 28.475 11.2909 28.475 13.7632C28.475 13.904 28.4995 14.0509 28.4016 14.21C28.0772 14.2834 27.7345 14.265 27.4041 14.2161C27.2878 14.0325 27.3245 13.8611 27.3245 13.702C27.3245 11.2847 27.3245 8.86746 27.3245 6.45017C27.3245 5.67297 27.0308 5.06712 26.2964 4.73054C26.0088 4.60202 25.7028 4.57754 25.3907 4.57754C23.4446 4.57754 21.5047 4.58366 19.5586 4.57754C18.9956 4.57754 18.8793 4.49799 18.708 3.97169C18.4509 3.18225 18.1939 2.39281 17.9369 1.60336C17.894 1.46873 17.8696 1.32798 17.7349 1.19334C15.4217 1.19334 13.0778 1.19334 10.6973 1.19334C10.5137 1.75636 10.3239 2.31937 10.1404 2.88238C10.018 3.26793 9.90169 3.65347 9.76706 4.03289C9.61406 4.48575 9.47331 4.58366 8.98373 4.58366C7.03767 4.58366 5.09772 4.58366 3.15165 4.58366C1.84815 4.58366 1.17498 5.25683 1.17498 6.55421C1.17498 10.9176 1.17498 15.2748 1.17498 19.6381C1.17498 20.9416 1.84203 21.6087 3.14553 21.6148C8.56147 21.6209 13.9774 21.6209 19.3934 21.6209C19.577 21.6209 19.7544 21.5903 19.9686 21.6882Z" fill="white"/>
<path d="M21.0821 13.0839C21.0821 16.9088 18.0406 19.9503 14.2219 19.9441C10.4155 19.938 7.39844 16.8904 7.39844 13.0472C7.39844 9.27136 10.4705 6.25434 14.2954 6.26046C18.0406 6.26658 21.0821 9.32032 21.0821 13.0839ZM19.9194 13.0778C19.8398 9.93229 17.4409 7.43545 14.228 7.44769C11.0397 7.45992 8.60402 9.90781 8.58566 13.0717C8.5673 16.2295 10.9968 18.763 14.277 18.7569C17.4348 18.7508 19.8704 16.2601 19.9194 13.0778Z" fill="white"/>
<path d="M26.2112 14.7975C29.3445 14.7975 31.8903 17.3433 31.8903 20.4704C31.8903 23.6649 29.369 26.1924 26.1867 26.1924C23.0106 26.1924 20.4893 23.6527 20.4893 20.4643C20.4893 17.3188 23.0351 14.7975 26.2112 14.7975ZM30.7337 20.5071C30.7337 18.0287 28.6958 15.9724 26.2112 15.9602C23.7327 15.9418 21.6459 18.0287 21.652 20.5071C21.6581 22.9795 23.7205 25.0357 26.1928 25.0418C28.6652 25.0418 30.7337 22.9734 30.7337 20.5071Z" fill="white"/>
<path d="M17.6737 13.1145C17.6737 15.03 16.156 16.5293 14.2283 16.5293C12.3128 16.5232 10.8135 15.0117 10.8135 13.0901C10.8135 11.1868 12.325 9.67527 14.2222 9.67527C16.1682 9.66915 17.6737 11.1746 17.6737 13.1145ZM11.9885 13.0962C11.9823 14.3079 12.9982 15.336 14.2222 15.3605C15.4339 15.385 16.4926 14.3385 16.5048 13.1084C16.5109 11.8845 15.4583 10.838 14.2344 10.8502C13.0166 10.8564 11.9946 11.8784 11.9885 13.0962Z" fill="white"/>
<path d="M28.8178 18.8854C28.5975 19.2281 28.3895 19.5096 28.1385 19.785C27.6551 19.5586 27.3063 19.1486 26.78 18.8793C26.78 20.5683 26.78 22.2023 26.78 23.8546C26.3761 23.9525 26.0334 23.9097 25.6295 23.8913C25.6295 22.2145 25.6295 20.5806 25.6295 18.8181C25.1215 19.1853 24.7115 19.4851 24.2831 19.8034C23.9955 19.5219 23.7936 19.222 23.5732 18.8854C24.0077 18.5549 24.4178 18.2428 24.8339 17.9307C25.1582 17.6859 25.4765 17.4473 25.8069 17.2086C26.0395 17.0373 26.2965 17.0005 26.5352 17.1719C27.2818 17.7349 28.0284 18.2979 28.8178 18.8854Z" fill="white"/>
</svg>
