<svg width="12" height="12" viewBox="0 0 12 12" fill="none" xmlns="http://www.w3.org/2000/svg">
<path d="M10.5897 10.9414C10.4767 10.6972 10.3603 10.4452 10.2325 10.2033C10.1589 10.0647 10.168 10.0077 10.2833 9.88228C11.4741 8.58669 12.0054 7.04146 11.8627 5.29039C11.6173 2.28154 9.23049 0.00720108 6.3101 0H6.30269C6.25133 0.00420063 6.19256 0.00780117 6.12865 0.0120018C5.97173 0.0216032 5.77715 0.033005 5.58657 0.0654098C4.03394 0.329449 2.70442 1.20378 1.8428 2.52818C0.981748 3.85198 0.687884 5.47042 1.01656 7.08466C1.30129 8.48467 2.10528 9.72146 3.28188 10.5676C4.45676 11.4131 5.84335 11.7546 7.18656 11.5289C7.27329 11.5145 7.35946 11.4929 7.4422 11.4725C7.66245 11.4179 7.87072 11.3663 8.09954 11.4311C8.64675 11.5871 9.2088 11.718 9.75259 11.8446C9.93177 11.886 10.1104 11.928 10.289 11.9706C10.3432 11.9838 10.4128 12 10.4864 12C10.5914 12 10.7044 11.9658 10.7928 11.8392C10.9252 11.6477 10.8413 11.4725 10.7717 11.3273C10.7095 11.1995 10.6496 11.0705 10.5897 10.9414ZM11.1004 5.07616C11.3223 6.82782 10.8014 8.32685 9.55288 9.53063C9.32464 9.75086 9.28412 9.9693 9.42164 10.2405C9.52777 10.45 9.62877 10.6654 9.73548 10.8934C9.75944 10.9444 9.78341 10.996 9.80794 11.0483C9.67442 11.0171 9.54318 10.9876 9.41365 10.9588C8.99368 10.8646 8.59711 10.7758 8.20967 10.6564C8.10239 10.6234 7.99968 10.6102 7.89982 10.6102C7.72351 10.6102 7.55689 10.6504 7.39426 10.6894C7.31038 10.7098 7.22365 10.7302 7.13863 10.7446C4.71297 11.1497 2.35007 9.50783 1.75892 7.00665C1.43652 5.64265 1.6836 4.18323 2.4368 3.00345C3.18773 1.82727 4.37288 1.03696 5.68871 0.834725C6.96174 0.639096 8.23306 0.984748 9.26986 1.80807C10.2855 2.61579 10.936 3.77577 11.1004 5.07616Z" fill="black"/>
</svg>
