<svg width="199" height="66" viewBox="0 0 199 66" fill="none" xmlns="http://www.w3.org/2000/svg">
<path d="M95.7745 34.5067L93.8038 40.5279L92.0402 49.7894L91.3508 59.3591L85.3824 48.2962L86.8531 41.3501L88.8178 35.9999" fill="#EAE239"/>
<path d="M48.5959 27.8992C48.445 27.6997 48.297 27.5002 48.1432 27.3037C46.5749 25.336 46.5897 25.3511 48.303 23.5828C50.6169 21.1919 52.9338 18.804 55.1916 16.3586C55.8425 15.6543 56.8427 14.941 55.8129 13.6896C55.4579 13.2574 56.0585 12.9702 56.4225 12.6982C58.0796 11.4528 59.7514 10.2317 61.1362 8.6478C61.6659 8.04024 62.0624 7.36014 62.5003 6.69516C62.7637 6.29314 62.817 5.89717 62.4175 5.64327C61.1658 4.84226 61.9795 4.53395 62.6749 4.01102C64.1337 2.9138 65.5185 1.7138 66.9329 0.559135C67.6313 0.486591 68.1373 0.846289 68.6314 1.29364C69.1788 1.78634 69.6996 2.34553 70.4808 2.46342L70.4631 2.44528C70.5134 2.808 70.7205 3.01052 71.0726 3.06795L71.0549 3.04982C71.4129 3.82362 71.9751 4.28911 72.851 4.274L72.8332 4.25586C72.8421 4.6609 73.0848 4.83017 73.4428 4.87853L73.4221 4.86039C73.6588 5.45284 74.1204 5.78533 74.6797 6.02412C75.8485 6.52286 76.1681 7.26644 75.1886 8.26392C74.6856 8.77475 74.3749 9.41556 74.7418 10.005C75.665 11.5012 76.4847 13.1274 78.1743 13.9435L78.1565 13.9254C78.1861 14.3123 78.3992 14.5088 78.7661 14.5481L78.7483 14.5299C79.0146 15.4911 79.858 15.8962 80.5622 16.404C81.2635 16.9088 82.0713 17.2594 81.225 18.3264C81.0149 18.5894 81.2073 19.0004 81.37 19.3239C82.8406 22.2619 84.6131 24.9309 87.5662 26.5329C87.871 26.6992 88.3089 26.7778 88.2261 27.21C87.9923 28.4251 87.2496 29.4317 86.4714 30.272C85.8441 30.9521 85.1842 30.009 84.5865 29.6584C82.8791 28.6609 81.7843 26.8533 79.9793 25.9828C79.929 25.614 79.7278 25.4146 79.3579 25.4085C79.4052 24.7707 78.9525 24.4231 78.5885 24.0151C77.328 22.6065 75.9935 21.2584 74.8335 19.7682C71.8775 15.9627 68.8238 12.2327 66.0837 8.25788C65.7612 7.78936 65.3173 7.46896 64.9297 8.12186C63.7934 10.0413 62.3997 11.8125 61.6097 13.9405C59.4378 16.404 57.541 19.0821 55.6916 21.7964C53.6558 23.3531 52.2148 25.5324 50.2677 27.1858C49.7558 27.6181 49.3031 28.0261 48.5959 27.8992Z" fill="#EA2D25"/>
<path d="M49.1256 44.6388C49.0517 46.3406 49.0309 48.0484 48.8919 49.7471C48.4125 55.6746 44.986 59.3139 39.2248 59.7763C36.3841 60.006 33.5139 59.8368 30.6584 59.8791C29.9334 59.8912 29.7352 59.5678 29.7382 58.8816C29.7529 50.8292 29.7559 42.7799 29.7352 34.7275C29.7322 33.9355 30.0133 33.6544 30.7679 33.6726C34.1145 33.7542 37.4819 33.4428 40.8049 33.9265C44.3054 34.4373 46.6401 36.5924 47.9923 39.8932C48.1995 40.401 48.3918 40.9179 48.5901 41.4287C48.7676 42.4987 48.9481 43.5688 49.1256 44.6388ZM33.2919 46.5945C33.2919 49.5113 33.3186 52.4252 33.2771 55.339C33.2653 56.2307 33.4931 56.6176 34.4312 56.5693C35.8544 56.4967 37.2925 56.6358 38.7099 56.5028C41.6364 56.2307 43.8083 54.8403 44.7729 51.8448C45.7731 48.7436 45.6725 45.5879 45.0304 42.4715C44.4326 39.5728 42.6572 37.729 39.7071 37.1305C38.0382 36.7919 36.3693 37.0398 34.7093 36.8977C33.6322 36.804 33.2357 37.1275 33.2712 38.2972C33.3482 41.066 33.2919 43.8317 33.2919 46.5945Z" fill="#18150F"/>
<path d="M97.1001 19.9193C98.2423 22.4523 100.204 24.2659 102.284 25.9405C103.175 26.6569 103.435 27.2251 102.622 28.1229C102.323 28.4493 102.074 28.8362 101.861 29.2291C100.737 31.2997 99.2306 32.6357 96.7184 32.1279C96.0911 32.1158 95.4638 32.1037 94.8365 32.0886C92.1734 32.2428 89.5872 31.5173 86.9537 31.3541C86.856 31.0548 88.6048 31.4236 87.2111 30.6226C87.1904 30.6105 87.359 30.1994 87.4774 29.9969C87.9005 29.2654 88.2586 28.4735 88.7912 27.8327C89.531 26.941 89.0753 26.5269 88.3207 26.1793C85.4386 24.8493 83.604 22.5007 82.2902 19.6745C81.583 18.1541 81.6304 18.139 83.3525 18.1087C87.7763 18.0362 92.1438 18.8584 96.5557 18.9944C96.603 19.1213 96.6504 19.2483 96.6977 19.3752C96.603 19.7319 96.8013 19.8649 97.1001 19.9193Z" fill="#EA2D25"/>
<path d="M0.0207138 46.6942C0.0177547 42.8222 0.0443859 38.9471 6.26431e-07 35.0751C-0.0118354 34.0927 0.156829 33.6484 1.27238 33.6665C5.45643 33.736 9.64344 33.7542 13.8275 33.6605C15.2005 33.6302 15.1709 34.3406 15.1857 35.329C15.2005 36.3567 15.1443 37.0126 13.8009 36.9673C10.7501 36.8615 7.69641 36.9612 4.6427 36.9159C3.83193 36.9038 3.50644 37.1063 3.53011 37.995C3.58633 40.1048 3.58337 42.2207 3.53011 44.3305C3.5094 45.1738 3.84968 45.328 4.57464 45.3189C7.28215 45.2887 9.99261 45.3703 12.6972 45.2796C13.934 45.2373 14.3305 45.6151 14.2536 46.8786C14.1885 47.9547 14.3098 48.7859 12.7622 48.7013C10.1613 48.5592 7.54254 48.7194 4.93564 48.6438C3.8704 48.6136 3.47981 48.8494 3.51532 50.0312C3.60409 52.8453 3.48277 55.6655 3.56858 58.4796C3.60409 59.6584 3.20166 59.9365 2.13049 59.8851C-0.281106 59.7703 0.0325498 60.2116 0.0207138 57.7058C0.00887768 54.0393 0.0207138 50.3668 0.0207138 46.6942Z" fill="#18150F"/>
<path d="M90.685 9.70573C91.1791 11.5949 92.3686 13.0367 93.6588 14.3848C94.8187 15.5969 96.0497 16.7365 97.2481 17.9062C96.7421 18.3566 96.1355 18.1934 95.5526 18.2176C92.1023 18.3506 88.7054 17.5526 85.2581 17.6009C84.0952 17.6161 83.0625 17.4014 82.086 16.6488C81.0445 15.8448 79.8609 15.2281 78.7424 14.5299L78.7601 14.548C78.7069 14.1883 78.4997 13.9828 78.1505 13.9254L78.1683 13.9435C77.4434 12.94 76.7065 11.9455 75.9993 10.9299C75.594 10.3465 74.8483 9.83571 75.4164 8.96215C76.0023 8.05838 76.4432 7.10019 77.8694 7.19389C79.3075 7.29062 80.645 7.88306 82.0949 7.83168C84.5065 7.74402 86.8234 8.66896 89.2498 8.57525C89.889 8.54503 90.6998 8.68407 90.685 9.70573Z" fill="#EA2D25"/>
<path d="M23.1514 33.8569C23.1543 42.0544 23.104 50.2549 23.1987 58.4524C23.2194 60.2932 22.1335 59.7733 21.1955 59.8791C20.0858 60.003 19.6627 59.6766 19.6716 58.4191C19.713 50.2731 19.6686 42.1239 19.6508 33.9778C20.8019 33.5214 21.9766 33.6726 23.1514 33.8569Z" fill="#18150F"/>
<path d="M71.0578 0.513794C75.6798 0.970217 80.3018 1.43571 84.9238 1.88004C85.9032 1.97374 86.6134 2.30321 87.1904 3.23722C88.3769 5.16266 90.1346 6.55007 91.9159 7.88004C91.7325 8.48155 91.3241 8.42412 90.8507 8.30321C90.2796 8.15813 89.6967 8.05536 89.1137 7.95258C84.0035 7.06392 78.5856 7.79238 73.8571 4.89667C73.7446 4.82714 73.5671 4.86644 73.4191 4.85737L73.4398 4.87551C73.4191 4.47954 73.1824 4.30724 72.8303 4.25284L72.848 4.27097C72.4752 3.51531 71.8656 3.1284 71.0519 3.04679L71.0697 3.06493C71.043 2.67803 70.8241 2.4876 70.4601 2.44226L70.4779 2.46039C70.4216 2.32437 70.3861 2.17022 70.3033 2.05233C70.0281 1.65939 69.3238 1.4085 69.4748 0.924877C69.6789 0.275003 70.4305 0.737471 70.9069 0.547043C70.9572 0.528907 71.0075 0.525885 71.0578 0.513794Z" fill="#EA2D25"/>
<path d="M91.8626 57.2009C91.839 56.8564 91.8479 56.5269 91.8774 56.1944C91.6881 56.0584 91.4839 55.9435 91.2531 55.8589C91.2472 55.9072 91.2413 55.9586 91.2324 56.007C90.9986 57.1707 91.8183 58.6367 90.9394 59.4589C90.1375 60.2085 88.7941 60.3657 87.6816 60.7586C83.7372 62.1521 79.7839 63.5123 75.8514 64.936C75.1146 65.202 74.8128 65.2352 74.8039 64.2891C74.7536 57.7934 75.085 51.3249 76.023 44.8896C76.2834 43.0972 76.5882 41.3168 77.0616 39.5758C77.1977 39.071 76.9669 38.1219 77.8369 38.2004C78.7394 38.2821 79.849 37.7682 80.5059 38.8443C80.6391 39.0619 80.6835 39.2947 80.9794 39.2947C82.7666 39.2795 84.5598 39.3249 86.3056 38.9138C86.2997 38.7778 86.2938 38.6418 86.2878 38.5057C84.8231 38.5994 83.3584 38.675 81.8937 38.7989C81.6363 38.8201 81.3078 39.1828 81.151 38.7959C80.6095 37.469 79.4555 37.605 78.4021 37.5536C77.6386 37.5173 77.5469 37.2574 77.7156 36.5198C78.4376 33.3884 79.6478 30.4201 80.5829 27.3612C80.5118 27.1979 80.4438 27.0377 80.3728 26.8745C77.7126 33.34 76.1207 40.0805 75.1708 47.0206C74.4044 52.6246 74.4074 58.2438 74.4104 63.872C74.4104 64.945 74.2299 65.3621 73.061 65.344C68.6817 65.2745 64.3023 65.2957 59.923 65.3501C58.9909 65.3621 58.6181 65.0297 58.4642 64.1319C57.9227 60.9672 57.3398 57.8115 56.7568 54.6559C55.6946 48.9128 54.6234 43.1727 53.5552 37.4297C53.0433 34.67 52.5284 31.9072 52.0165 29.1476C51.8833 29.1234 51.7502 29.0962 51.62 29.069C51.2383 31.206 52.0491 33.2312 52.3805 35.2594C52.777 37.6836 53.4102 40.1168 53.7978 42.538C54.4133 46.3737 55.3484 50.143 55.8455 54.009C56.2982 57.5425 57.3605 60.9944 57.9493 64.5158C58.1535 65.74 58.6033 65.9576 59.6419 65.9485C63.53 65.9062 67.4271 65.7763 71.3063 65.9758C74.1855 66.1239 76.7953 65.2926 79.4318 64.4312C82.8199 63.3249 86.0837 61.8438 89.5487 60.946C91.0903 60.547 92.6083 59.9969 91.8301 57.7571C91.7591 57.5576 91.7739 57.3611 91.8626 57.2009Z" fill="#18150F"/>
<path d="M80.5859 27.3642C80.5149 27.204 80.4468 27.0407 80.3758 26.8805C80.1805 26.6327 79.8372 26.4816 79.8787 26.0795L79.9763 25.9828C81.7843 26.8564 82.8762 28.6609 84.5835 29.6584C85.1812 30.009 85.8411 30.9521 86.4684 30.272C87.2437 29.4317 87.9893 28.4251 88.2231 27.21C88.306 26.7778 87.871 26.6992 87.5632 26.5329C84.6101 24.9309 82.8377 22.2619 81.3671 19.3239C81.2043 18.9974 81.012 18.5894 81.2221 18.3264C82.0683 17.2594 81.2605 16.9088 80.5592 16.404C79.855 15.8962 79.0146 15.4911 78.7454 14.5299C79.8668 15.2282 81.0475 15.8448 82.0891 16.6488C83.0626 17.4015 84.0982 17.6191 85.2611 17.6009C88.7054 17.5526 92.1024 18.3506 95.5556 18.2176C96.1355 18.1964 96.7451 18.3566 97.2511 17.9062C97.5381 18.0634 97.8222 18.2206 98.1329 18.3899C97.7156 19.0458 96.97 18.5501 96.5557 18.9944C92.1438 18.8584 87.7763 18.0362 83.3526 18.1088C81.6304 18.136 81.5831 18.1541 82.2903 19.6745C83.6041 22.5007 85.4387 24.8493 88.3208 26.1793C89.0753 26.5269 89.534 26.941 88.7912 27.8327C88.2586 28.4735 87.9006 29.2654 87.4774 29.9969C87.3591 30.1994 87.1904 30.6105 87.2111 30.6226C88.6048 31.4236 86.856 31.0549 86.9537 31.3541C85.6724 31.3601 84.8291 30.4564 83.8497 29.8156C82.7075 29.069 81.9322 27.8206 80.5859 27.3642Z" fill="#982B27"/>
<path d="M73.4191 4.86342C73.567 4.87551 73.7446 4.83319 73.857 4.90271C78.5826 7.79843 84.0035 7.06996 89.1137 7.95863C89.6937 8.05838 90.2766 8.16417 90.8507 8.30926C91.3241 8.43016 91.7354 8.48457 91.9159 7.88608C92.2917 7.92538 92.7711 7.81354 92.8539 8.36367C92.9102 8.74755 92.6143 8.99843 92.3361 9.21304C91.8479 9.59087 91.2916 9.74503 90.682 9.70875C90.6998 8.68709 89.886 8.55107 89.2498 8.57525C86.8235 8.66896 84.5065 7.74704 82.0949 7.83168C80.645 7.88306 79.3046 7.29062 77.8695 7.19389C76.4462 7.09717 76.0053 8.05838 75.4164 8.96215C74.8483 9.83873 75.594 10.3496 75.9994 10.9299C76.7066 11.9455 77.4434 12.94 78.1683 13.9435C76.4787 13.1304 75.662 11.5012 74.7359 10.005C74.3719 9.41555 74.6796 8.77777 75.1827 8.26392C76.1621 7.26644 75.8396 6.52588 74.6737 6.02412C74.1174 5.78533 73.6588 5.45586 73.4191 4.86342Z" fill="#982B27"/>
<path d="M91.8331 52.9994C91.6733 52.8332 91.5135 52.6669 91.3537 52.4977C91.6881 50.4332 91.7917 48.3445 92.1911 46.277C92.7179 43.5415 93.4961 40.8785 94.1086 38.1702C94.3098 38.0916 94.5081 38.013 94.7093 37.9344C94.8839 38.9742 94.4637 39.8962 94.1767 40.8543C93.0641 44.5843 92.4811 48.4171 92.0314 52.28C92.0018 52.5249 91.8982 52.7606 91.8331 52.9994Z" fill="#18150F"/>
<path d="M52.0165 29.1536C51.8834 29.1264 51.7502 29.1022 51.62 29.075C50.463 29.0841 49.3859 28.8755 48.5959 27.8992C49.3031 28.0261 49.7588 27.6181 50.2677 27.1858C52.2148 25.5324 53.6558 23.3531 55.6916 21.7964L55.6798 21.7813C55.736 22.4644 55.2803 22.8815 54.8809 23.3108C53.351 24.9491 51.8064 26.5753 50.1997 28.277C51.5579 28.8816 52.3124 28.0564 53.1173 27.3642C53.7328 26.8352 54.1381 25.9737 55.1235 26.0282C54.3334 27.3249 52.9309 27.9838 52.0165 29.1536Z" fill="#982B27"/>
<path d="M71.0578 0.513794C71.0105 0.522862 70.9602 0.528907 70.9158 0.547043C70.4394 0.737471 69.6878 0.275002 69.4837 0.924877C69.3327 1.4085 70.037 1.65939 70.3122 2.05233C70.395 2.17022 70.4305 2.32437 70.4868 2.46039C69.7056 2.34251 69.1848 1.78331 68.6374 1.29062C68.1432 0.846287 67.6372 0.483567 66.9389 0.556111C67.8887 -0.166307 69.9956 -0.190489 71.0578 0.513794Z" fill="#982B27"/>
<path d="M95.2863 35.078C95.6059 35.0145 95.9314 34.9692 96.2539 34.9087C96.2864 34.7213 96.3279 34.5339 96.3811 34.3465C96.4196 34.2105 96.4758 34.0866 96.538 33.9717C96.4965 33.7904 96.5113 33.5606 96.606 33.2584C96.7155 32.9047 96.6829 32.5057 96.7185 32.1279C96.0911 32.1158 95.4638 32.1037 94.8365 32.0886C96.0675 32.0705 96.1207 32.7899 95.8041 33.7208C95.6473 34.1803 95.4579 34.6246 95.2863 35.078Z" fill="#18150F"/>
<path d="M97.1002 19.9193C96.8042 19.8649 96.606 19.7319 96.6948 19.3783C96.9492 19.4629 97.0617 19.6624 97.1002 19.9193Z" fill="#EA2D25"/>
<path d="M94.8335 32.0886C96.0645 32.0705 96.1178 32.7899 95.8012 33.7208C95.6473 34.1773 95.4579 34.6246 95.2833 35.075C91.7591 36.4684 89.0368 38.8805 87.8029 42.4987C86.8649 45.2493 86.6815 48.1239 88.1255 51.0407C89.0043 52.815 90.0074 54.3868 91.2502 55.8589C91.2443 55.9072 91.2383 55.9586 91.2295 56.007C90.9957 57.1707 91.8154 58.6367 90.9365 59.4589C90.1346 60.2085 88.7912 60.3657 87.6786 60.7586C83.7343 62.1521 79.781 63.5123 75.8485 64.9359C75.1117 65.2019 74.8099 65.2352 74.801 64.2891C74.7507 57.7934 75.0821 51.3249 76.0201 44.8896C76.2805 43.0972 76.5853 41.3168 77.0587 39.5758C77.1948 39.071 76.964 38.1218 77.834 38.2004C78.7365 38.282 79.8461 37.7682 80.503 38.8443C80.6362 39.0619 80.6806 39.2946 80.9765 39.2946C82.7637 39.2795 84.5569 39.3249 86.3027 38.9138C86.2968 38.7778 86.2909 38.6417 86.2849 38.5057C84.8202 38.5994 83.3555 38.675 81.8908 38.7989C81.6334 38.8201 81.3049 39.1828 81.1481 38.7959C80.6066 37.469 79.4526 37.605 78.3992 37.5536C77.6357 37.5173 77.544 37.2574 77.7127 36.5198C78.4347 33.3883 79.6449 30.4201 80.58 27.3611C81.9263 27.8176 82.7016 29.0659 83.8408 29.8125C84.8202 30.4533 85.6635 31.3571 86.9448 31.3511C89.5872 31.5173 92.1704 32.2428 94.8335 32.0886ZM84.4001 52.9662C82.0151 53.8881 79.3816 53.8035 77.0499 54.8826C79.5532 54.4412 82.1601 54.4443 84.4001 52.9662Z" fill="#EAE239"/>
<path d="M94.1056 38.1732C93.4931 40.8815 92.7148 43.5445 92.1881 46.28C91.7887 48.3475 91.6851 50.4362 91.3507 52.5007C89.5161 50.6538 88.8592 46.4433 89.7381 43.7168C90.5429 41.2231 91.9277 39.4276 94.1056 38.1732Z" fill="#EAE239"/>
<path d="M61.6067 13.9405C62.3967 11.8125 63.7904 10.0443 64.9267 8.12185C65.3143 7.46594 65.7582 7.78936 66.0807 8.25787C68.8208 12.2357 71.8774 15.9627 74.8305 19.7682C75.9875 21.2584 77.325 22.6065 78.5855 24.0151C78.9495 24.4201 79.4022 24.7677 79.3549 25.4085L79.3164 25.4478C77.1859 23.7098 75.5999 21.4518 73.86 19.3481C71.8064 16.8664 69.8771 14.279 67.936 11.7037C67.3975 10.9873 67.1548 10.8906 66.64 11.7611C66.1961 12.5138 65.9298 13.4297 65.1486 13.9526C65.0451 12.8402 65.7671 12.0513 66.353 11.3319C67.362 10.0957 66.3707 9.37626 65.7256 8.88054C64.8764 8.22765 65.0036 9.5274 64.5953 9.85384C64.1633 10.1984 63.9917 10.8634 63.6188 11.3138C62.9146 12.1662 62.7785 13.475 61.5889 13.9284L61.6067 13.9405Z" fill="#982B27"/>
<path d="M55.6916 21.7964C57.538 19.079 59.4377 16.4009 61.6097 13.9405L61.5949 13.9284C61.5771 14.3274 61.5534 14.7052 61.2901 15.0559C60.0473 16.7123 58.8666 18.4171 57.5736 20.0312C57.0409 20.6931 56.6651 21.606 55.6798 21.7843L55.6916 21.7964Z" fill="#982B27"/>
<path d="M71.0548 3.04981C71.8656 3.13142 72.4781 3.52135 72.851 4.27399C71.9751 4.28608 71.4129 3.82362 71.0548 3.04981Z" fill="#982B27"/>
<path d="M78.1535 13.9254C78.5027 13.9828 78.7098 14.1884 78.7631 14.548C78.3962 14.5057 78.1831 14.3093 78.1535 13.9254Z" fill="#982B27"/>
<path d="M72.8303 4.25586C73.1824 4.31027 73.4191 4.48558 73.4398 4.87853C73.0818 4.83017 72.8391 4.6609 72.8303 4.25586Z" fill="#982B27"/>
<path d="M70.463 2.44528C70.827 2.49062 71.0459 2.68105 71.0726 3.06795C70.7204 3.01052 70.5133 2.808 70.463 2.44528Z" fill="#982B27"/>
<path d="M79.3549 25.4055C79.7248 25.4145 79.929 25.611 79.9763 25.9798L79.8787 26.0765C79.4733 26.0674 79.3076 25.8347 79.3135 25.4417L79.3549 25.4055Z" fill="#982B27"/>
<path d="M79.3164 25.4448C79.3105 25.8377 79.4762 26.0674 79.8816 26.0795C79.8401 26.4816 80.1834 26.6327 80.3787 26.8805C77.7185 33.346 76.1266 40.0866 75.1767 47.0266C74.4103 52.6307 74.4133 58.2498 74.4162 63.878C74.4162 64.9511 74.2357 65.3682 73.0669 65.3501C68.6876 65.2805 64.3082 65.3017 59.9289 65.3561C58.9968 65.3682 58.624 65.0357 58.4701 64.138C57.9286 60.9732 57.3457 57.8176 56.7627 54.6619C55.7004 48.9188 54.6293 43.1788 53.5611 37.4357C53.0492 34.676 52.5343 31.9133 52.0224 29.1536C52.9338 27.9868 54.3393 27.3279 55.1264 26.0282L55.1057 26.0402C55.5495 26.0644 55.6856 25.7289 55.8306 25.4025C57.1829 24.4685 58.2186 23.2171 59.2246 21.9324C59.5146 21.7571 59.8401 21.612 59.846 21.1919L59.8342 21.207C60.0354 21.1798 60.2337 20.9289 60.4408 21.1979C60.2218 22.0896 60.1508 22.9481 60.7367 23.7581C61.0533 24.1964 61.0415 24.6649 60.642 25.1214C60.1597 25.6775 59.8105 26.3153 60.5207 26.9501C61.2397 27.5939 61.8996 27.4004 62.6246 26.8352C65.2965 24.7496 68.2112 24.6468 70.9364 26.4513C71.259 26.6659 71.6289 26.8322 72.0017 26.9319C72.6231 27.0982 73.1705 26.9229 73.5581 26.3667C73.9487 25.8045 73.7505 25.2664 73.3421 24.8735C72.6586 24.2176 72.9486 23.8186 73.5226 23.3168C74.3275 22.6156 74.8098 21.8297 74.0345 20.7203C73.3954 19.8045 72.5757 19.6413 71.5845 19.7591C70.6642 19.868 70.2529 20.4664 69.9925 21.2977C69.8357 21.8025 69.8889 22.407 69.3445 22.7576C68.3769 23.3803 65.3616 23.0146 64.5686 22.1017C63.6099 21.0015 62.5802 20.1581 61.0119 20.5994C60.9734 19.2997 62.4677 18.8554 62.589 17.6463L62.5624 17.6554C63.3643 17.2775 63.678 16.5219 63.9857 15.7571L63.9739 15.7692C64.5805 15.3007 64.9977 14.7022 65.1634 13.9375L65.1486 13.9586C65.9298 13.4357 66.1961 12.5198 66.6399 11.7672C67.1519 10.8967 67.3945 10.9934 67.936 11.7098C69.8771 14.2851 71.8064 16.8725 73.86 19.3541C75.5969 21.4458 77.1829 23.7037 79.3164 25.4448ZM57.5794 45.2342C57.6386 46.2891 57.6889 47.7491 57.8132 49.203C58.1535 53.1264 58.7571 56.9863 60.7189 60.4775C61.7516 62.3153 63.2252 63.4216 65.3972 63.2886C67.8827 63.1375 69.8534 62.1037 71.0193 59.7702C71.6703 58.4644 72.0431 57.074 72.2621 55.614C73.0048 50.681 72.9959 45.6906 73.351 40.7304C73.564 37.7742 73.2001 34.7879 72.0579 32.0009C71.0962 29.6523 69.6078 27.8962 66.8767 27.7118C63.7312 27.4972 61.3403 29.0176 59.8815 32.1823C58.0292 36.1934 57.6445 40.4795 57.5794 45.2342Z" fill="#EAE239"/>
<path d="M59.2188 21.9294C58.2127 23.214 57.177 24.4685 55.8248 25.3994C55.4046 25.4025 55.0909 25.5294 55.0998 26.0372L55.1205 26.0251C54.1322 25.9707 53.7268 26.8322 53.1143 27.3611C52.3094 28.0533 51.5549 28.8785 50.1967 28.274C51.8034 26.5722 53.3481 24.946 54.8779 23.3077C55.2773 22.8785 55.733 22.4644 55.6768 21.7783C56.6622 21.5999 57.0409 20.6871 57.5706 20.0251C58.8637 18.411 60.0443 16.7062 61.2871 15.0498C61.5475 14.7022 61.5712 14.3214 61.5919 13.9224C62.7814 13.469 62.9175 12.1601 63.6218 11.3077C63.9946 10.8574 64.1662 10.1954 64.5983 9.8478C65.0066 9.52135 64.8794 8.2216 65.7286 8.8745C66.3737 9.37022 67.3649 10.0896 66.3559 11.3259C65.77 12.0453 65.0451 12.8342 65.1516 13.9465L65.1664 13.9254C64.3201 14.2307 63.9266 14.8443 63.9769 15.7571L63.9887 15.745C63.0773 16.0352 62.6986 16.7455 62.5654 17.6433L62.592 17.6342C61.3996 18.5984 60.281 19.6261 59.8342 21.1949L59.8461 21.1798C59.3401 21.1737 59.2572 21.5334 59.2188 21.9294Z" fill="#EA2D25"/>
<path d="M84.4 52.9662C82.16 54.4443 79.5531 54.4412 77.0498 54.8826C79.3815 53.8035 82.015 53.8881 84.4 52.9662Z" fill="#18150F"/>
<path d="M57.5795 45.2342C57.6446 40.4795 58.0293 36.1934 59.8846 32.1793C61.3463 29.0145 63.7342 27.4972 66.8797 27.7088C69.6109 27.8931 71.0992 29.6463 72.0609 31.9979C73.2001 34.7848 73.5641 37.7712 73.354 40.7274C72.9989 45.6876 73.0078 50.678 72.2651 55.611C72.0461 57.071 71.6763 58.4614 71.0223 59.7672C69.8565 62.1007 67.8858 63.1344 65.4002 63.2856C63.2283 63.4186 61.7547 62.3123 60.722 60.4745C58.7601 56.9863 58.1565 53.1264 57.8162 49.1999C57.689 47.7491 57.6387 46.2891 57.5795 45.2342Z" fill="#18150F"/>
<path d="M61.0119 20.5964C62.5802 20.1551 63.6129 20.9984 64.5687 22.0987C65.3617 23.0115 68.3769 23.3803 69.3445 22.7546C69.889 22.404 69.8357 21.7994 69.9926 21.2946C70.25 20.4634 70.6613 19.8649 71.5845 19.7561C72.5758 19.6382 73.3925 19.8014 74.0346 20.7173C74.8099 21.8266 74.3305 22.6125 73.5227 23.3138C72.9486 23.8156 72.6586 24.2145 73.3422 24.8705C73.7505 25.2604 73.9458 25.8014 73.5582 26.3637C73.1706 26.9198 72.6231 27.0952 72.0017 26.9289C71.6289 26.8292 71.259 26.6629 70.9365 26.4483C68.2112 24.6438 65.2936 24.7465 62.6246 26.8322C61.8996 27.3974 61.2398 27.5939 60.5207 26.947C59.8106 26.3093 60.1597 25.6745 60.6421 25.1183C61.0386 24.6619 61.0504 24.1934 60.7367 23.7551C60.1509 22.942 60.2219 22.0866 60.4408 21.1949L60.4231 21.207C60.8107 21.1828 60.9409 20.9017 61.0326 20.5783L61.0119 20.5964ZM72.2444 26.5057C72.635 26.5662 72.9102 26.3606 73.1232 26.0705C73.3895 25.7108 73.2209 25.3541 72.9368 25.1486C71.8242 24.3415 72.3361 23.7611 73.0877 23.0569C74.2181 21.9989 73.9251 20.5662 72.558 20.1128C71.6082 19.7984 70.5696 20.4785 70.3861 21.7601C70.2027 23.0266 69.5901 23.3259 68.4213 23.4287C66.4121 23.604 64.6427 23.5254 63.3377 21.6211C62.9146 21.0045 62.1334 20.4755 61.3019 21.2433C60.5207 21.9627 60.6391 22.7999 61.1717 23.5465C61.66 24.2266 61.7961 24.7254 61.0652 25.3148C60.716 25.5959 60.5533 26.1219 60.8729 26.5329C61.2546 27.0287 61.8493 26.9259 62.1867 26.5511C63.8644 24.6982 66.1074 24.9763 68.2319 24.7496C69.1729 24.6498 69.963 24.7405 70.5933 25.5657C70.9986 26.0946 71.6112 26.3425 72.2444 26.5057Z" fill="#18150F"/>
<path d="M59.8313 21.2009C60.2781 19.6322 61.3966 18.6045 62.5891 17.6402C62.4708 18.8523 60.9735 19.2967 61.012 20.5934L61.0297 20.5752C60.5533 20.5057 60.284 20.6508 60.4202 21.204L60.4379 21.1919C60.2308 20.9229 60.0325 21.1737 59.8313 21.2009Z" fill="#982B27"/>
<path d="M62.5625 17.6493C62.6956 16.7516 63.0744 16.0413 63.9857 15.7511C63.678 16.5158 63.3643 17.2745 62.5625 17.6493Z" fill="#982B27"/>
<path d="M63.9739 15.7632C63.9236 14.8503 64.3172 14.2367 65.1634 13.9314C64.9977 14.6992 64.5805 15.2947 63.9739 15.7632Z" fill="#982B27"/>
<path d="M59.2187 21.9294C59.2572 21.5334 59.3371 21.1768 59.8401 21.1889C59.8342 21.609 59.5117 21.7541 59.2187 21.9294Z" fill="#982B27"/>
<path d="M55.0998 26.0402C55.0939 25.5324 55.4075 25.4055 55.8247 25.4025C55.6827 25.7289 55.5436 26.0644 55.0998 26.0402Z" fill="#982B27"/>
<path d="M72.2444 26.5057C71.6112 26.3425 70.9986 26.0946 70.5962 25.5657C69.9659 24.7405 69.1759 24.6498 68.2349 24.7496C66.1103 24.9763 63.8674 24.7012 62.1896 26.5511C61.8523 26.9229 61.2575 27.0287 60.8758 26.5329C60.5592 26.1219 60.722 25.5959 61.0682 25.3148C61.7991 24.7224 61.66 24.2266 61.1747 23.5465C60.6421 22.803 60.5237 21.9627 61.3049 21.2433C62.1364 20.4785 62.9176 21.0045 63.3407 21.6211C64.6456 23.5254 66.4151 23.604 68.4243 23.4287C69.5931 23.3259 70.2056 23.0266 70.3891 21.7601C70.5725 20.4785 71.6141 19.7984 72.561 20.1128C73.9281 20.5662 74.221 21.9989 73.0907 23.0569C72.3391 23.7611 71.8272 24.3415 72.9398 25.1486C73.2238 25.3541 73.3925 25.7108 73.1262 26.0705C72.9131 26.3606 72.635 26.5662 72.2444 26.5057Z" fill="#F2E6E4"/>
<path d="M60.4201 21.204C60.284 20.6508 60.5533 20.5088 61.0297 20.5753C60.9379 20.8987 60.8077 21.1798 60.4201 21.204Z" fill="#EAE239"/>
<path d="M114.135 51.7753L114.109 52.9481C111.38 56.0372 109.504 57.5818 108.478 57.5818C107.436 57.5818 106.912 57.1103 106.912 56.1702C106.912 55.602 107.125 54.8795 107.551 53.9999C107.978 53.1203 108.634 52.0866 109.519 50.8987C108.389 51.8569 107.312 52.9148 106.288 54.0664C105.628 54.8312 104.968 55.5838 104.308 56.3304C103.77 56.8987 103.335 57.1828 103.006 57.1828C102.293 57.1828 101.938 56.811 101.938 56.0644C101.938 55.5506 102.207 54.7768 102.746 53.7491C103.181 52.9148 103.918 51.6634 104.962 49.9949C103.728 51.0256 102.598 52.1773 101.574 53.4559C100.932 54.3264 100.287 55.1879 99.6449 56.0372C99.1419 56.7113 98.7335 57.0498 98.4199 57.0498C97.5499 57.0498 97.1179 55.9949 97.1179 53.8821C97.1179 53.208 97.1889 52.6669 97.328 52.2589C97.4138 51.9929 97.6505 51.5667 98.0322 50.9803C98.6418 50.0402 99.1478 49.3571 99.5561 48.9309C99.9645 48.5047 100.352 48.2931 100.716 48.2931C101.601 48.2931 102.045 48.4896 102.045 48.8795C102.045 49.1093 101.906 49.4206 101.627 49.8105C100.74 50.8926 99.9319 51.8871 99.204 52.7939L99.1508 53.6735C100.784 51.9868 101.879 50.8685 102.435 50.3183C103.409 49.3601 104.211 48.6498 104.847 48.1874C105.48 47.7249 105.998 47.4952 106.397 47.4952C107.007 47.4952 107.309 47.8246 107.309 48.4806C107.309 48.8372 107.196 49.2513 106.968 49.7319C106.744 50.2125 106.072 51.3642 104.962 53.1929C108.575 49.6775 110.661 47.9214 111.218 47.9214C111.321 47.9214 111.46 48.0362 111.635 48.2659C112.017 48.7647 112.209 49.2151 112.209 49.6231C112.209 49.8528 112.061 50.1612 111.765 50.542C111.469 50.9229 111.244 51.213 111.087 51.4065C110.096 52.6307 109.602 53.5103 109.602 54.0423C109.602 54.2025 109.667 54.3385 109.797 54.4564C109.928 54.5712 110.073 54.6287 110.226 54.6287C110.555 54.6287 111.052 54.3808 111.712 53.8821C112.265 53.4528 113.073 52.7516 114.135 51.7753Z" fill="#18150F"/>
<path d="M120.755 51.748L120.781 52.9239C118.506 55.8135 116.689 57.2584 115.334 57.2584C114.621 57.2584 114.061 56.9531 113.653 56.3395C113.245 55.7259 113.04 54.8614 113.04 53.743C113.04 52.7486 113.242 51.8448 113.641 51.0256C114.041 50.2095 114.674 49.3632 115.544 48.4836C116.414 47.604 117.204 47.1657 117.917 47.1657C118.491 47.1657 118.778 47.4135 118.778 47.9123C118.778 48.408 118.5 49.0518 117.943 49.8438C117.387 50.6327 116.526 51.5334 115.363 52.546C115.277 52.8997 115.233 53.1929 115.233 53.4256C115.233 54.278 115.65 54.7042 116.485 54.7042C116.902 54.7042 117.461 54.4685 118.165 53.9939C118.864 53.5163 119.728 52.7697 120.755 51.748ZM118.174 45.6241C118.174 45.0377 118.405 44.4936 118.864 43.9858C119.325 43.481 119.808 43.2271 120.311 43.2271C120.849 43.2271 121.119 43.5203 121.119 44.1067C121.119 44.6025 120.894 45.1314 120.441 45.6906C119.988 46.2498 119.53 46.5279 119.059 46.5279C118.799 46.5279 118.586 46.4433 118.42 46.274C118.257 46.1077 118.174 45.8901 118.174 45.6241Z" fill="#18150F"/>
<path d="M119.66 52.812C120.997 49.7773 122.24 48.2599 123.388 48.2599C123.734 48.2599 124.036 48.3173 124.288 48.4352C124.539 48.5501 124.666 48.6891 124.666 48.8493C124.666 49.1878 123.918 50.2216 122.423 51.9536C121.971 52.4705 121.746 52.9964 121.746 53.5314C123.433 51.5879 125.021 50.0191 126.516 48.8251C127.75 47.8458 128.593 47.3531 129.043 47.3531C129.253 47.3531 129.442 47.5224 129.617 47.8579C129.791 48.1964 129.877 48.5773 129.877 49.0035C129.877 49.3934 129.712 49.7894 129.383 50.1883C129.052 50.5873 128.714 50.9833 128.365 51.3732C128.034 51.8176 127.747 52.271 127.504 52.7304C127.155 53.3863 126.983 53.8397 126.983 54.0876C126.983 54.4594 127.158 54.6468 127.504 54.6468C127.729 54.6468 128.146 54.408 128.756 53.9274C129.362 53.4498 130.188 52.7123 131.232 51.7178L131.259 52.9148C128.46 56.0221 126.602 57.5758 125.681 57.5758C125.264 57.5758 124.93 57.4125 124.678 57.0861C124.427 56.7596 124.3 56.3214 124.3 55.7742C124.3 54.7314 125.063 53.1415 126.593 51.0014C125.655 51.8901 124.196 53.5496 122.213 55.9798C121.675 56.6357 121.275 56.9652 121.015 56.9652C120.616 56.9652 120.284 56.6569 120.024 56.0402C119.763 55.4236 119.633 54.5863 119.633 53.5314L119.66 52.812Z" fill="#18150F"/>
<path d="M137.254 53.2654C136.281 54.4292 135.257 55.3722 134.18 56.0947C133.31 56.675 132.676 56.9682 132.277 56.9682C131.756 56.9682 131.303 56.6146 130.922 55.9072C130.54 55.1999 130.348 54.3506 130.348 53.3561C130.348 52.7002 130.549 52.0231 130.948 51.3249C131.348 50.6266 131.922 49.9737 132.668 49.3722C135.047 47.477 136.813 46.5309 137.958 46.5309C138.358 46.5309 138.704 46.6095 139 46.7697C139.296 46.9299 139.444 47.1052 139.444 47.3017C139.444 47.9032 138.322 48.7798 136.082 49.9284C134.727 50.6176 133.771 51.2282 133.215 51.7601C132.502 52.4312 132.147 53.1838 132.147 54.0151C132.147 54.2266 132.215 54.3778 132.354 54.4654C132.493 54.5531 132.623 54.5984 132.744 54.5984C133.614 54.5984 134.899 53.6161 136.603 51.6544C137.263 50.8594 137.932 50.0554 138.609 49.2423C139.148 48.6408 139.565 48.3415 139.861 48.3415C140.053 48.3415 140.216 48.4745 140.355 48.7405C140.494 49.0065 140.562 49.3269 140.562 49.6987C140.562 50.001 140.491 50.3365 140.355 50.7113C140.302 50.8352 140.112 51.2614 139.781 51.9899L138.216 55.2906C138.947 54.7586 139.571 54.2871 140.092 53.879C140.926 53.2231 141.734 52.5219 142.515 51.7753V52.9722C141.823 53.6826 140.716 54.6861 139.192 55.9798C138.293 56.7445 137.506 57.4276 136.831 58.0292C136.017 59.61 135.118 60.9853 134.132 62.1551C132.697 63.878 131.641 64.7365 130.966 64.7365C130.552 64.7365 130.345 64.4886 130.345 63.9899C130.345 63.2977 130.741 62.3818 131.534 61.2483C132.466 59.9334 133.768 58.5672 135.44 57.1465C135.68 56.7929 135.961 56.2851 136.28 55.6292C136.603 54.9793 136.926 54.1873 137.254 53.2654Z" fill="#18150F"/>
<path d="M149.608 51.7753L149.635 52.9208C146.821 55.9737 144.977 57.5002 144.11 57.5002C143.397 57.5002 142.799 57.1103 142.311 56.3274C141.826 55.5476 141.58 54.6226 141.58 53.5586C141.58 52.404 141.953 50.9773 142.702 49.2725C143.536 47.3742 144.699 45.5002 146.193 43.6533C148.191 41.1868 149.626 39.9536 150.493 39.9536C150.839 39.9536 151.014 40.2649 151.014 40.8846C151.014 42.6589 150.439 44.5057 149.294 46.4221C148.096 48.4292 146.374 50.2911 144.134 52.014V52.546C144.134 54.1783 144.569 54.9944 145.436 54.9944C145.959 54.9944 147.347 53.9213 149.608 51.7753ZM144.655 49.9647C145.767 49.0428 146.717 47.9365 147.51 46.6488C148.3 45.3611 148.93 43.9012 149.401 42.269C147.122 44.7717 145.542 47.338 144.655 49.9647Z" fill="#18150F"/>
<path d="M150.86 53.0448V53.1778C150.86 53.7823 151.011 54.2599 151.315 54.6075C151.62 54.9551 152.031 55.1274 152.552 55.1274C153.194 55.1274 153.97 54.8584 154.872 54.3234C155.881 53.734 156.932 52.8846 158.026 51.7722V52.9481C155.42 55.9254 153.188 57.4156 151.327 57.4156C150.389 57.4156 149.664 57.1072 149.149 56.4936C148.637 55.88 148.38 54.9944 148.38 53.8367C148.38 52.147 149.14 50.539 150.661 49.0186C152.182 47.4982 153.81 46.7365 155.55 46.7365C156.784 46.7365 157.399 47.1294 157.399 47.9123C157.399 48.7677 156.834 49.6836 155.704 50.6629C154.437 51.7722 152.821 52.5642 150.86 53.0448ZM150.963 51.8811C153.916 50.5148 155.393 49.3873 155.393 48.4987C155.393 48.3022 155.331 48.2055 155.209 48.2055C154.757 48.2055 154.141 48.4896 153.36 49.0579C152.354 49.7863 151.552 50.7264 150.963 51.8811Z" fill="#18150F"/>
<path d="M158.26 56.8926C158.26 56.4181 158.594 55.868 159.263 55.2423C159.932 54.6166 160.485 54.3052 160.917 54.3052C161.317 54.3052 161.518 54.5259 161.518 54.9642C161.518 55.4025 161.24 55.9314 160.684 56.5481C160.074 57.2342 159.503 57.5788 158.964 57.5788C158.494 57.5788 158.26 57.3491 158.26 56.8926Z" fill="#18150F"/>
<path d="M173.795 51.7753L173.822 52.9481C171.129 56.0735 169.025 57.6332 167.513 57.6332C166.782 57.6332 166.122 57.2161 165.533 56.3818C164.942 55.5476 164.646 54.5622 164.646 53.4256C164.646 51.739 165.48 50.1853 167.149 48.7647C167.895 48.1088 168.688 47.5889 169.522 47.208C170.357 46.8271 170.999 46.6367 171.451 46.6367C172.25 46.6367 172.65 46.9994 172.65 47.7279C172.65 48.4201 172.318 49.1879 171.659 50.0312C170.999 50.8745 170.469 51.2947 170.07 51.2947C169.706 51.2947 169.522 50.9924 169.522 50.3879C168.114 51.2584 167.117 52.144 166.525 53.0508V53.3168C166.525 54.5229 167.054 55.1274 168.114 55.1274C168.877 55.1274 169.729 54.8433 170.667 54.275C171.605 53.7098 172.647 52.8755 173.795 51.7753Z" fill="#18150F"/>
<path d="M178.748 55.5022C177.627 56.7808 176.517 57.4186 175.414 57.4186C174.656 57.4186 174.008 57.08 173.475 56.403C172.943 55.7259 172.674 54.8282 172.674 53.7067C172.674 52.9601 172.875 52.1682 173.274 51.3309C173.674 50.4936 174.248 49.7198 174.993 49.0095C175.618 48.405 176.284 47.9365 176.988 47.607C177.692 47.2775 178.331 47.1143 178.902 47.1143C179.405 47.1143 179.837 47.2171 180.192 47.4196C180.548 47.6251 180.728 47.8337 180.728 48.0453C180.728 48.0816 180.675 48.1601 180.571 48.2841C180.468 48.408 180.361 48.541 180.258 48.6831C180.814 48.6831 181.092 49.1002 181.092 49.9344C181.092 51.1768 180.622 52.5702 179.683 54.1148C180.083 54.1148 180.565 53.9123 181.13 53.5012C181.696 53.0931 182.394 52.4705 183.228 51.6362L183.202 52.9662C182.358 53.8186 181.625 54.4564 181 54.8826C180.376 55.3088 179.811 55.5203 179.299 55.5203L178.748 55.5022ZM177.444 54.3264V53.4982C177.444 52.5521 177.879 51.2584 178.745 49.6201C177.476 50.1551 176.443 50.9138 175.644 51.8931C174.931 52.7667 174.576 53.5617 174.576 54.275C174.576 54.9702 174.908 55.3178 175.573 55.3178C176.189 55.3148 176.813 54.9853 177.444 54.3264Z" fill="#18150F"/>
<path d="M199 51.7753L198.973 52.9481C196.245 56.0372 194.369 57.5818 193.342 57.5818C192.301 57.5818 191.777 57.1103 191.777 56.1702C191.777 55.602 191.99 54.8795 192.416 53.9999C192.842 53.1203 193.499 52.0866 194.384 50.8987C193.254 51.8569 192.176 52.9148 191.153 54.0664C190.493 54.8312 189.833 55.5838 189.173 56.3304C188.634 56.8987 188.199 57.1828 187.871 57.1828C187.158 57.1828 186.803 56.811 186.803 56.0644C186.803 55.5506 187.072 54.7768 187.611 53.7491C188.046 52.9148 188.782 51.6634 189.827 49.9949C188.593 51.0256 187.463 52.1773 186.439 53.4559C185.797 54.3264 185.152 55.1879 184.51 56.0372C184.007 56.7113 183.598 57.0498 183.285 57.0498C182.415 57.0498 181.983 55.9949 181.983 53.8821C181.983 53.208 182.054 52.6669 182.193 52.2589C182.278 51.9929 182.515 51.5667 182.897 50.9803C183.506 50.0402 184.012 49.3571 184.421 48.9309C184.829 48.5047 185.217 48.2931 185.581 48.2931C186.466 48.2931 186.909 48.4896 186.909 48.8795C186.909 49.1093 186.77 49.4206 186.492 49.8105C185.604 50.8926 184.797 51.8871 184.069 52.7939L184.015 53.6735C185.649 51.9868 186.744 50.8685 187.3 50.3183C188.273 49.3601 189.075 48.6498 189.712 48.1874C190.345 47.7249 190.863 47.4952 191.262 47.4952C191.872 47.4952 192.173 47.8246 192.173 48.4806C192.173 48.8372 192.061 49.2513 191.833 49.7319C191.608 50.2125 190.937 51.3642 189.827 53.1929C193.44 49.6775 195.526 47.9214 196.082 47.9214C196.186 47.9214 196.325 48.0362 196.5 48.2659C196.881 48.7647 197.074 49.2151 197.074 49.6231C197.074 49.8528 196.926 50.1612 196.63 50.542C196.334 50.9229 196.109 51.213 195.952 51.4065C194.961 52.6307 194.467 53.5103 194.467 54.0423C194.467 54.2025 194.532 54.3385 194.662 54.4564C194.792 54.5712 194.937 54.6287 195.091 54.6287C195.42 54.6287 195.917 54.3808 196.576 53.8821C197.133 53.4528 197.941 52.7516 199 51.7753Z" fill="#18150F"/>
<path d="M96.3811 34.3465C96.3811 34.3465 94.8809 38.3606 94.2654 40.5672L93.9518 38.8503L95.4845 34.5732" fill="#332B18"/>
<path d="M92.0403 52.1984C92.0403 52.1984 91.7118 54.6377 91.8509 56.9682L91.2324 56.013C91.2324 56.013 91.2088 53.9274 91.484 51.5999" fill="#332B18"/>
<path d="M77.0942 12.4564C77.0942 12.4564 79.6123 15.3702 80.8847 15.8085L79.6182 15.745L76.6858 12.8402" fill="#982B27"/>
<path d="M79.059 24.538L82.086 27.5606L80.3757 26.8775L78.4583 24.538" fill="#982B27"/>
<path d="M69.46 2.01002L74.0819 5.69767L74.5287 5.28659L70.034 1.77122" fill="#982B27"/>
<path d="M66.1488 12.7103C66.1488 12.7103 59.42 23.6251 52.8006 28.3344V27.6392C52.8006 27.6392 61.5741 19.5415 65.4948 12.4957" fill="#982B27"/>
<path d="M62.5891 13.1002L61.2901 15.0528L60.8255 14.8473L62.0151 12.9763" fill="#982B27"/>
<path d="M56.9581 20.8836L54.8779 23.3108L54.7151 22.6246L56.316 20.8836" fill="#982B27"/>
<path d="M61.2102 19.7863L59.9142 21.343H60.4024L61.4617 20.2972" fill="#EAE239"/>
<path d="M60.3284 21.7148C60.3284 21.7148 60.3935 20.3244 61.9617 20.4785L60.3284 21.7148Z" fill="#332B18"/>
</svg>
