<svg width="13" height="13" viewBox="0 0 13 13" fill="none" xmlns="http://www.w3.org/2000/svg">
<path d="M12.004 7.6005C11.8414 8.32256 11.4853 8.93652 10.9318 9.43244C10.2901 10.0077 9.45201 10.3152 8.5901 10.3301C7.94342 10.341 7.29574 10.331 6.64807 10.331V10.332C5.95973 10.332 2.02707 10.331 0.992576 10.333C1.05903 10.3935 1.12648 10.454 1.19293 10.5145C1.77712 11.0442 2.36132 11.5748 2.94651 12.1045C3.01792 12.1689 3.07446 12.2394 3.07942 12.3356C3.08933 12.5032 2.9961 12.6083 2.8384 12.6748C2.765 12.6768 2.70252 12.6787 2.62912 12.6807C2.45951 12.6143 2.3514 12.4804 2.22643 12.3673C1.58867 11.795 0.955878 11.2178 0.321098 10.6435C0.165379 10.5026 0.0701615 10.335 0.0185856 10.1456C0.0126345 10.0434 0.00668349 9.94423 0.000732422 9.84108C0.0443736 9.57526 0.197118 9.37094 0.400445 9.18745C1.07688 8.57747 1.74737 7.96253 2.41984 7.34957C2.4486 7.32378 2.47637 7.297 2.50811 7.27419C2.64796 7.17203 2.84633 7.18194 2.97428 7.29502C3.12107 7.42495 3.12008 7.62332 2.96635 7.76515C2.67474 8.03493 2.38215 8.30273 2.08856 8.57053C1.73448 8.89486 1.3784 9.21721 1.02432 9.54154C2.46348 9.54253 6.88215 9.54253 8.01285 9.54055C8.24891 9.54055 8.48397 9.54055 8.72003 9.52865C9.47978 9.49096 10.1433 9.18745 10.6571 8.54573C11.1937 7.87524 11.402 6.98655 11.1917 6.15439C11.1907 6.14844 11.1887 6.14249 11.1867 6.13654C11.1134 5.85188 11.3216 5.57317 11.6152 5.57317H11.8424C11.8543 5.60392 11.8681 5.63268 11.8791 5.66442C12.1121 6.29722 12.1518 6.94489 12.004 7.6005Z" fill="#363636"/>
<path d="M0.0871392 5.07923C0.249802 4.35717 0.605874 3.74322 1.15932 3.2473C1.80105 2.67203 2.63915 2.36456 3.50107 2.34968C4.14775 2.33877 4.79542 2.34869 5.4431 2.34869V2.34769C6.13144 2.34769 10.0641 2.34869 11.0986 2.3467C11.0321 2.2862 10.9647 2.2257 10.8982 2.1652C10.314 1.63555 9.72985 1.10491 9.14466 0.57527C9.07325 0.5108 9.01671 0.440379 9.01175 0.34417C9.00183 0.176548 9.09507 0.0714128 9.25277 0.00495922C9.32617 0.00396738 9.38865 0.00198369 9.46205 0C9.63165 0.0664535 9.73976 0.200352 9.86474 0.313423C10.5025 0.885717 11.1353 1.46297 11.7701 2.03725C11.9258 2.17809 12.021 2.34571 12.0726 2.53515C12.0785 2.63731 12.0845 2.7365 12.0904 2.83965C12.0468 3.10546 11.894 3.30978 11.6907 3.49327C11.0143 4.10326 10.3438 4.7182 9.67133 5.33116C9.64256 5.35695 9.61479 5.38373 9.58305 5.40654C9.4432 5.5087 9.24483 5.49878 9.11689 5.38571C8.97009 5.25578 8.97109 5.05741 9.12482 4.91558C9.41642 4.6458 9.70902 4.378 10.0026 4.1102C10.3567 3.78587 10.7128 3.46352 11.0669 3.13919C9.62769 3.13819 5.20902 3.13819 4.07832 3.14018C3.84226 3.14018 3.60719 3.14018 3.37113 3.15208C2.61138 3.18977 1.94784 3.49327 1.43406 4.135C0.897476 4.80548 0.689188 5.69418 0.899459 6.52633C0.900451 6.53228 0.902435 6.53824 0.904419 6.54419C0.977815 6.82885 0.769528 7.10755 0.475942 7.10755H0.246826C0.234924 7.07681 0.221038 7.04804 0.210128 7.0163C-0.0209718 6.38252 -0.0606456 5.73385 0.0871392 5.07923Z" fill="#363636"/>
</svg>
