<svg width="38" height="38" viewBox="0 0 38 38" fill="none" xmlns="http://www.w3.org/2000/svg">
<circle cx="19" cy="19" r="19" fill="#921A1D"/>
<path d="M21.1358 27.819C20.9276 27.7456 20.7251 27.6615 20.5495 27.5231C20.412 27.4144 20.294 27.2927 20.2118 27.1329C19.2558 25.2729 18.2965 23.4147 17.3386 21.5561C17.3019 21.4845 17.2685 21.4111 17.2383 21.348C17.2559 21.2597 17.3159 21.2188 17.3642 21.1705C20.785 17.7487 24.2068 14.3269 27.6295 10.9065C27.6774 10.8587 27.7132 10.7686 27.8121 10.8155C27.8121 11.0124 27.8121 11.2094 27.8121 11.4068C27.7787 11.5174 27.7485 11.6294 27.7118 11.739C26.0464 16.7351 24.3796 21.7307 22.7161 26.7273C22.541 27.2532 22.2381 27.6471 21.6918 27.8195C21.5069 27.819 21.3216 27.819 21.1358 27.819Z" fill="white"/>
<path d="M27.0032 10.0355C23.494 13.5447 19.9896 17.0491 16.4586 20.5801C16.3202 20.5104 16.1348 20.4189 15.9513 20.3241C14.2214 19.4322 12.4914 18.5417 10.7629 17.6475C10.2449 17.3794 9.99362 16.94 10.0001 16.3639C10.0062 15.8223 10.3253 15.479 10.7796 15.2425C10.9074 15.1761 11.0467 15.1315 11.1838 15.0855C16.1436 13.4318 21.104 11.7789 26.0639 10.1243C26.3194 10.0392 26.5772 9.9835 26.8475 10.0044C26.9093 10.0095 26.9771 9.99697 27.0032 10.0355Z" fill="white"/>
</svg>
