<svg width="241" height="80" viewBox="0 0 241 80" fill="none" xmlns="http://www.w3.org/2000/svg">
<path d="M115.988 41.8263L113.602 49.1247L111.466 60.3507L110.631 71.9505L103.403 58.5408L105.184 50.1213L107.563 43.6363" fill="#EAE239"/>
<path d="M58.8523 33.8172C58.6696 33.5754 58.4904 33.3336 58.3041 33.0954C56.4048 30.7102 56.4227 30.7286 58.4976 28.5852C61.2999 25.6871 64.1058 22.7927 66.84 19.8286C67.6284 18.975 68.8397 18.1103 67.5926 16.5935C67.1626 16.0695 67.89 15.7215 68.3308 15.3917C70.3376 13.8822 72.3623 12.402 74.0394 10.4822C74.6808 9.74574 75.161 8.92138 75.6914 8.11533C76.0103 7.62804 76.0748 7.14808 75.591 6.84032C74.0752 5.8694 75.0607 5.49569 75.9028 4.86184C77.6695 3.53187 79.3466 2.07732 81.0595 0.677733C81.9052 0.589801 82.518 1.0258 83.1165 1.56805C83.7794 2.16525 84.4101 2.84306 85.3562 2.98595L85.3347 2.96397C85.3956 3.40363 85.6465 3.64911 86.0729 3.71872L86.0514 3.69674C86.485 4.63468 87.1659 5.19891 88.2266 5.1806L88.2051 5.15861C88.2158 5.64957 88.5097 5.85474 88.9433 5.91336L88.9182 5.89138C89.2049 6.60949 89.7639 7.01252 90.4412 7.30196C91.8567 7.90649 92.2437 8.8078 91.0576 10.0169C90.4484 10.6361 90.0721 11.4128 90.5165 12.1272C91.6345 13.9408 92.6272 15.912 94.6734 16.9012L94.6519 16.8792C94.6877 17.3482 94.9457 17.5864 95.3901 17.634L95.3686 17.612C95.6911 18.7771 96.7124 19.2681 97.5653 19.8836C98.4146 20.4955 99.3929 20.9205 98.368 22.2138C98.1136 22.5326 98.3465 23.0308 98.5436 23.4229C100.325 26.9841 102.471 30.2193 106.048 32.1611C106.417 32.3626 106.947 32.4579 106.847 32.9818C106.564 34.4547 105.664 35.6748 104.722 36.6933C103.962 37.5177 103.163 36.3745 102.439 35.9495C100.371 34.7405 99.0453 32.5495 96.8593 31.4943C96.7984 31.0473 96.5547 30.8055 96.1068 30.7982C96.1641 30.0251 95.6159 29.6038 95.1751 29.1091C93.6485 27.4018 92.0323 25.7677 90.6276 23.9615C87.0476 19.3487 83.3494 14.8275 80.031 10.0095C79.6404 9.44164 79.1029 9.05328 78.6335 9.84467C77.2574 12.1712 75.5695 14.3182 74.6127 16.8976C71.9824 19.8836 69.6854 23.1298 67.4457 26.4199C64.9802 28.3068 63.235 30.9484 60.877 32.9525C60.2571 33.4764 59.7088 33.9711 58.8523 33.8172Z" fill="#EA2D25"/>
<path d="M59.4939 54.1076C59.4043 56.1704 59.3792 58.2404 59.2108 60.2995C58.6302 67.4843 54.4805 71.8956 47.5034 72.4562C44.0632 72.7346 40.5872 72.5294 37.129 72.5807C36.2511 72.5954 36.011 72.2034 36.0146 71.3717C36.0325 61.6112 36.0361 51.8544 36.011 42.0939C36.0074 41.134 36.3478 40.7932 37.2616 40.8152C41.3146 40.9141 45.3927 40.5368 49.417 41.123C53.6563 41.7422 56.4837 44.3545 58.1214 48.3554C58.3722 48.9709 58.6052 49.5974 58.8453 50.2166C59.0603 51.5136 59.2789 52.8106 59.4939 54.1076ZM40.3184 56.4781C40.3184 60.0137 40.3506 63.5457 40.3005 67.0776C40.2861 68.1585 40.5621 68.6274 41.6981 68.5688C43.4217 68.4809 45.1633 68.6494 46.8798 68.4882C50.424 68.1585 53.0543 66.4731 54.2225 62.8422C55.4337 59.0831 55.3119 55.2581 54.5343 51.4807C53.8104 47.967 51.6603 45.7321 48.0875 45.0066C46.0664 44.5963 44.0453 44.8967 42.0349 44.7245C40.7305 44.611 40.2503 45.003 40.2933 46.4209C40.3865 49.777 40.3184 53.1294 40.3184 56.4781Z" fill="white"/>
<path d="M117.594 24.1446C118.977 27.2149 121.353 29.4132 123.872 31.443C124.951 32.3113 125.266 33.0001 124.281 34.0883C123.919 34.484 123.618 34.953 123.36 35.4293C121.998 37.939 120.174 39.5584 117.131 38.9429C116.372 38.9282 115.612 38.9136 114.852 38.8953C111.627 39.0821 108.495 38.2028 105.306 38.005C105.187 37.6422 107.305 38.0892 105.617 37.1183C105.592 37.1036 105.797 36.6054 105.94 36.3599C106.452 35.4732 106.886 34.5133 107.531 33.7366C108.427 32.6557 107.875 32.1538 106.961 31.7325C103.471 30.1204 101.249 27.2736 99.658 23.8479C98.8016 22.0049 98.8589 21.9866 100.945 21.95C106.302 21.8621 111.591 22.8586 116.934 23.0235C116.992 23.1774 117.049 23.3313 117.106 23.4851C116.992 23.9175 117.232 24.0787 117.594 24.1446Z" fill="#EA2D25"/>
<path d="M0.0250886 56.599C0.0215051 51.9056 0.0537569 47.2086 3.86406e-06 42.5152C-0.0143303 41.3245 0.189931 40.7859 1.54092 40.8079C6.60804 40.8921 11.6787 40.9141 16.7459 40.8005C18.4086 40.7639 18.3728 41.6249 18.3907 42.823C18.4086 44.0687 18.3405 44.8637 16.7136 44.8088C13.019 44.6806 9.32078 44.8015 5.62257 44.7465C4.64068 44.7318 4.24649 44.9773 4.27516 46.0545C4.34325 48.6119 4.33967 51.1765 4.27516 53.7339C4.25008 54.7561 4.66218 54.943 5.54015 54.932C8.81909 54.8953 12.1016 54.9943 15.377 54.8844C16.8749 54.8331 17.3551 55.291 17.2619 56.8225C17.1831 58.1269 17.33 59.1344 15.4558 59.0318C12.3059 58.8596 9.13444 59.0538 5.97734 58.9622C4.68727 58.9256 4.21424 59.2114 4.25724 60.6439C4.36475 64.0549 4.21783 67.4733 4.32175 70.8843C4.36475 72.3132 3.87739 72.6503 2.58015 72.588C-0.340432 72.4488 0.0394228 72.9837 0.0250886 69.9464C0.0107545 65.5022 0.0250886 61.0506 0.0250886 56.599Z" fill="white"/>
<path d="M109.825 11.7645C110.423 14.0544 111.864 15.8021 113.426 17.4361C114.831 18.9053 116.321 20.2866 117.773 21.7045C117.16 22.2504 116.425 22.0526 115.719 22.0819C111.541 22.2431 107.427 21.2759 103.252 21.3345C101.844 21.3528 100.593 21.0927 99.4108 20.1804C98.1493 19.2058 96.7159 18.4584 95.3614 17.612L95.3829 17.634C95.3184 17.198 95.0675 16.9489 94.6446 16.8792L94.6662 16.9012C93.7882 15.6848 92.8959 14.4794 92.0394 13.2484C91.5485 12.5413 90.6454 11.9221 91.3335 10.8632C92.043 9.76773 92.577 8.60629 94.3042 8.71987C96.0458 8.83711 97.6656 9.55523 99.4215 9.49294C102.342 9.38669 105.148 10.5078 108.086 10.3942C108.861 10.3576 109.842 10.5261 109.825 11.7645Z" fill="#EA2D25"/>
<path d="M28.0376 41.0387C28.0412 50.975 27.9803 60.9151 28.0949 70.8514C28.12 73.0827 26.8049 72.4525 25.6689 72.5807C24.3251 72.7309 23.8126 72.3352 23.8234 70.8111C23.8735 60.937 23.8198 51.0593 23.7983 41.1853C25.1923 40.632 26.6149 40.8152 28.0376 41.0387Z" fill="white"/>
<path d="M86.055 0.622781C91.6524 1.17602 97.2499 1.74025 102.847 2.27884C104.034 2.39242 104.894 2.79178 105.592 3.9239C107.029 6.25777 109.158 7.93947 111.315 9.55156C111.093 10.2807 110.599 10.2111 110.025 10.0645C109.334 9.88864 108.628 9.76407 107.922 9.6395C101.733 8.56233 95.1715 9.44531 89.445 5.93535C89.3088 5.85108 89.0938 5.89871 88.9146 5.88772L88.9397 5.90971C88.9146 5.42974 88.6279 5.2209 88.2015 5.15495L88.223 5.17694C87.7715 4.26098 87.0333 3.792 86.0478 3.69308L86.0693 3.71506C86.037 3.24609 85.7719 3.01527 85.3311 2.96031L85.3526 2.9823C85.2845 2.81742 85.2415 2.63057 85.1412 2.48768C84.8079 2.01138 83.955 1.70728 84.1378 1.12106C84.385 0.333338 85.2953 0.893906 85.8722 0.663084C85.9331 0.6411 85.994 0.637437 86.055 0.622781Z" fill="#EA2D25"/>
<path d="M111.251 69.3345C111.222 68.9168 111.233 68.5174 111.269 68.1144C111.039 67.9495 110.792 67.8103 110.513 67.7077C110.505 67.7663 110.498 67.8286 110.487 67.8873C110.204 69.2978 111.197 71.0748 110.133 72.0714C109.162 72.98 107.535 73.1705 106.187 73.6468C101.41 75.3358 96.6228 76.9846 91.8602 78.7102C90.9679 79.0327 90.6024 79.073 90.5917 77.9262C90.5307 70.0526 90.9321 62.212 92.0681 54.4116C92.3834 52.239 92.7525 50.081 93.3259 47.9706C93.4907 47.3587 93.2112 46.2083 94.2648 46.3036C95.3578 46.4025 96.7016 45.7796 97.4971 47.084C97.6584 47.3478 97.7122 47.6299 98.0705 47.6299C100.235 47.6116 102.407 47.6665 104.521 47.1682C104.514 47.0034 104.507 46.8385 104.499 46.6736C102.726 46.7872 100.952 46.8788 99.1778 47.029C98.8661 47.0547 98.4683 47.4943 98.2784 47.0253C97.6226 45.4169 96.225 45.5818 94.9492 45.5195C94.0247 45.4755 93.9136 45.1604 94.1179 44.2665C94.9923 40.4707 96.4579 36.8728 97.5903 33.165C97.5043 32.9672 97.4219 32.773 97.3359 32.5752C94.1143 40.4121 92.1863 48.5825 91.036 56.9947C90.1079 63.7874 90.1115 70.5985 90.1151 77.4206C90.1151 78.7212 89.8965 79.2268 88.481 79.2049C83.1773 79.1206 77.8737 79.1462 72.5701 79.2122C71.4412 79.2268 70.9897 78.8238 70.8034 77.7357C70.1476 73.8996 69.4416 70.0746 68.7357 66.2495C67.4492 59.2882 66.152 52.3306 64.8583 45.3693C64.2383 42.0242 63.6148 38.6754 62.9949 35.3304C62.8336 35.3011 62.6723 35.2681 62.5147 35.2351C62.0524 37.8254 63.0343 40.2802 63.4356 42.7386C63.9158 45.677 64.6827 48.6264 65.1521 51.5612C65.8975 56.2106 67.0299 60.7794 67.632 65.4655C68.1802 69.7485 69.4667 73.9326 70.1798 78.201C70.4271 79.6848 70.9718 79.9486 72.2296 79.9376C76.9384 79.8863 81.6579 79.7288 86.3559 79.9706C89.8427 80.1501 93.0034 79.1426 96.1963 78.0984C100.299 76.7574 104.252 74.9621 108.448 73.874C110.315 73.3903 112.154 72.7235 111.211 70.0086C111.125 69.7668 111.143 69.5287 111.251 69.3345Z" fill="#18150F"/>
<path d="M97.594 33.1687C97.508 32.9745 97.4255 32.7767 97.3395 32.5825C97.103 32.282 96.6873 32.0988 96.7375 31.6116L96.8558 31.4943C99.0453 32.5532 100.368 34.7405 102.435 35.9495C103.159 36.3745 103.958 37.5177 104.718 36.6933C105.657 35.6748 106.56 34.4547 106.843 32.9818C106.943 32.4579 106.417 32.3626 106.044 32.1611C102.468 30.2193 100.321 26.9841 98.54 23.4229C98.3429 23.0272 98.11 22.5326 98.3644 22.2138C99.3893 20.9205 98.411 20.4955 97.5617 19.8836C96.7088 19.2681 95.6911 18.7771 95.365 17.612C96.7232 18.4584 98.153 19.2058 99.4144 20.1804C100.593 21.0927 101.848 21.3565 103.256 21.3345C107.427 21.2759 111.541 22.2431 115.723 22.0819C116.425 22.0563 117.164 22.2504 117.776 21.7045C118.124 21.895 118.468 22.0856 118.844 22.2907C118.339 23.0858 117.436 22.4849 116.934 23.0235C111.591 22.8586 106.302 21.8621 100.945 21.95C98.859 21.983 98.8016 22.005 99.6581 23.8479C101.249 27.2736 103.471 30.1204 106.961 31.7325C107.875 32.1538 108.431 32.6558 107.531 33.7366C106.886 34.5133 106.452 35.4732 105.94 36.3599C105.797 36.6054 105.592 37.1037 105.618 37.1183C107.305 38.0892 105.187 37.6422 105.306 38.005C103.754 38.0123 102.733 36.9168 101.547 36.1401C100.163 35.2351 99.2245 33.7219 97.594 33.1687Z" fill="#982B27"/>
<path d="M88.9146 5.89504C89.0938 5.9097 89.3088 5.8584 89.445 5.94267C95.1679 9.45263 101.733 8.56965 107.922 9.64682C108.624 9.76772 109.33 9.89596 110.025 10.0718C110.599 10.2184 111.097 10.2843 111.315 9.55888C111.77 9.60651 112.351 9.47095 112.451 10.1378C112.519 10.6031 112.161 10.9072 111.824 11.1673C111.233 11.6253 110.559 11.8121 109.821 11.7682C109.842 10.5298 108.857 10.3649 108.087 10.3942C105.148 10.5078 102.342 9.39035 99.4215 9.49293C97.6656 9.55522 96.0423 8.83711 94.3042 8.71986C92.5806 8.60262 92.0466 9.76772 91.3335 10.8632C90.6455 11.9257 91.5485 12.5449 92.0395 13.2484C92.8959 14.4794 93.7882 15.6848 94.6662 16.9012C92.62 15.9156 91.6309 13.9408 90.5093 12.1272C90.0685 11.4128 90.4412 10.6397 91.0504 10.0169C92.2366 8.8078 91.8459 7.91015 90.434 7.30196C89.7603 7.01251 89.2049 6.61315 88.9146 5.89504Z" fill="#982B27"/>
<path d="M111.215 64.2417C111.021 64.0402 110.828 63.8387 110.634 63.6335C111.039 61.1311 111.165 58.5994 111.649 56.0933C112.286 52.7776 113.229 49.5497 113.971 46.2669C114.214 46.1717 114.455 46.0764 114.698 45.9811C114.91 47.2415 114.401 48.359 114.053 49.5204C112.706 54.0416 112 58.6874 111.455 63.3697C111.419 63.6665 111.294 63.9523 111.215 64.2417Z" fill="#18150F"/>
<path d="M62.9949 35.3377C62.8336 35.3047 62.6724 35.2754 62.5147 35.2424C61.1135 35.2534 59.8091 35.0006 58.8523 33.8172C59.7088 33.9711 60.2607 33.4764 60.877 32.9525C63.235 30.9484 64.9802 28.3068 67.4457 26.4199L67.4313 26.4016C67.4994 27.2296 66.9475 27.7352 66.4638 28.2555C64.6111 30.2413 62.7405 32.2124 60.7946 34.2752C62.4395 35.0079 63.3533 34.0077 64.328 33.1687C65.0734 32.5275 65.5643 31.4833 66.7576 31.5493C65.8008 33.1211 64.1022 33.9198 62.9949 35.3377Z" fill="#982B27"/>
<path d="M86.055 0.622772C85.9976 0.633764 85.9367 0.641092 85.883 0.663075C85.306 0.893897 84.3958 0.333329 84.1485 1.12105C83.9658 1.70727 84.8187 2.01137 85.1519 2.48767C85.2523 2.63056 85.2953 2.81741 85.3634 2.98229C84.4173 2.8394 83.7866 2.16159 83.1237 1.56438C82.5252 1.0258 81.9124 0.586134 81.0667 0.674066C82.217 -0.201592 84.7685 -0.230903 86.055 0.622772Z" fill="#982B27"/>
<path d="M115.397 42.5188C115.784 42.4419 116.178 42.3869 116.569 42.3136C116.608 42.0865 116.658 41.8593 116.723 41.6322C116.769 41.4673 116.838 41.3171 116.913 41.1778C116.863 40.958 116.881 40.6796 116.995 40.3132C117.128 39.8845 117.088 39.4009 117.131 38.9429C116.372 38.9282 115.612 38.9136 114.852 38.8953C116.343 38.8733 116.408 39.7453 116.024 40.8737C115.834 41.4306 115.605 41.9692 115.397 42.5188Z" fill="#18150F"/>
<path d="M117.594 24.1446C117.235 24.0787 116.995 23.9175 117.103 23.4888C117.411 23.5914 117.547 23.8332 117.594 24.1446Z" fill="#EA2D25"/>
<path d="M114.849 38.8953C116.339 38.8733 116.404 39.7453 116.021 40.8737C115.834 41.427 115.605 41.9692 115.393 42.5151C111.125 44.2042 107.829 47.1279 106.334 51.5135C105.198 54.8476 104.976 58.3319 106.725 61.8676C107.789 64.0182 109.004 65.9234 110.509 67.7077C110.502 67.7663 110.495 67.8286 110.484 67.8872C110.201 69.2978 111.193 71.0748 110.129 72.0714C109.158 72.98 107.531 73.1705 106.184 73.6468C101.407 75.3358 96.6192 76.9846 91.8567 78.7102C90.9644 79.0326 90.5989 79.073 90.5882 77.9262C90.5272 70.0526 90.9286 62.212 92.0646 54.4116C92.3799 52.239 92.749 50.081 93.3224 47.9706C93.4872 47.3587 93.2077 46.2083 94.2613 46.3036C95.3543 46.4025 96.6981 45.7796 97.4936 47.084C97.6549 47.3477 97.7086 47.6299 98.067 47.6299C100.231 47.6115 102.403 47.6665 104.517 47.1682C104.51 47.0034 104.503 46.8385 104.496 46.6736C102.722 46.7872 100.948 46.8788 99.1743 47.029C98.8625 47.0546 98.4648 47.4943 98.2748 47.0253C97.6191 45.4169 96.2215 45.5818 94.9457 45.5195C94.0212 45.4755 93.9101 45.1604 94.1144 44.2665C94.9887 40.4707 96.4544 36.8728 97.5868 33.165C99.2173 33.7183 100.156 35.2314 101.536 36.1364C102.722 36.9131 103.743 38.0086 105.295 38.0013C108.495 38.2028 111.624 39.0821 114.849 38.8953ZM102.213 64.2014C99.3248 65.3189 96.1355 65.2163 93.3117 66.5243C96.3433 65.9894 99.5004 65.993 102.213 64.2014Z" fill="#EAE239"/>
<path d="M113.967 46.2706C113.225 49.5534 112.283 52.7812 111.645 56.097C111.161 58.6031 111.036 61.1348 110.631 63.6372C108.409 61.3986 107.613 56.2949 108.678 52.9901C109.653 49.9674 111.33 47.7911 113.967 46.2706Z" fill="#EAE239"/>
<path d="M74.6091 16.8976C75.5659 14.3182 77.2538 12.1749 78.6298 9.84467C79.0993 9.04962 79.6368 9.44165 80.0274 10.0095C83.3458 14.8312 87.0476 19.3487 90.6239 23.9615C92.0251 25.7677 93.6449 27.4018 95.1714 29.1092C95.6122 29.6001 96.1605 30.0214 96.1032 30.7982L96.0566 30.8458C93.4764 28.7391 91.5557 26.0022 89.4485 23.4522C86.9616 20.4442 84.6251 17.3079 82.2743 14.1863C81.6221 13.318 81.3283 13.2007 80.7047 14.2559C80.1672 15.1682 79.8447 16.2784 78.8986 16.9122C78.7732 15.5639 79.6476 14.6077 80.3571 13.7357C81.5791 12.2372 80.3786 11.3652 79.5974 10.7643C78.5689 9.9729 78.723 11.5484 78.2285 11.9441C77.7053 12.3617 77.4974 13.1678 77.0459 13.7137C76.193 14.7469 76.0282 16.3333 74.5876 16.8829L74.6091 16.8976Z" fill="#982B27"/>
<path d="M67.4456 26.4199C69.6818 23.1261 71.9824 19.8799 74.6127 16.8976L74.5948 16.8829C74.5733 17.3665 74.5446 17.8245 74.2257 18.2495C72.7206 20.2573 71.2908 22.3237 69.7248 24.2802C69.0797 25.0826 68.6246 26.1891 67.4313 26.4052L67.4456 26.4199Z" fill="#982B27"/>
<path d="M86.0514 3.69674C87.0333 3.79566 87.775 4.2683 88.2266 5.1806C87.1658 5.19525 86.485 4.63468 86.0514 3.69674Z" fill="#982B27"/>
<path d="M94.6483 16.8792C95.0711 16.9489 95.3219 17.198 95.3865 17.634C94.9421 17.5827 94.6841 17.3446 94.6483 16.8792Z" fill="#982B27"/>
<path d="M88.2015 5.15861C88.6279 5.22456 88.9146 5.43706 88.9397 5.91336C88.5061 5.85474 88.2122 5.64957 88.2015 5.15861Z" fill="#982B27"/>
<path d="M85.3346 2.96398C85.7754 3.01893 86.0406 3.24976 86.0728 3.71873C85.6464 3.64912 85.3955 3.40364 85.3346 2.96398Z" fill="#982B27"/>
<path d="M96.1032 30.7945C96.5512 30.8055 96.7984 31.0437 96.8558 31.4906L96.7375 31.6079C96.2466 31.5969 96.0459 31.3148 96.053 30.8385L96.1032 30.7945Z" fill="#982B27"/>
<path d="M96.0566 30.8422C96.0494 31.3184 96.2501 31.5969 96.741 31.6116C96.6908 32.0988 97.1065 32.282 97.3431 32.5825C94.1215 40.4194 92.1935 48.5898 91.0432 57.002C90.1151 63.7947 90.1186 70.6058 90.1222 77.4279C90.1222 78.7286 89.9036 79.2342 88.4881 79.2122C83.1845 79.1279 77.8809 79.1536 72.5772 79.2195C71.4484 79.2342 70.9969 78.8312 70.8105 77.743C70.1548 73.907 69.4488 70.0819 68.7428 66.2568C67.4564 59.2955 66.1591 52.3379 64.8655 45.3766C64.2455 42.0315 63.622 38.6828 63.002 35.3377C64.1057 33.9234 65.8079 33.1247 66.7611 31.5493L66.7361 31.5639C67.2736 31.5932 67.4384 31.1866 67.614 30.7909C69.2517 29.6587 70.5059 28.1419 71.7243 26.5848C72.0755 26.3723 72.4697 26.1964 72.4769 25.6871L72.4626 25.7054C72.7062 25.6725 72.9463 25.3684 73.1972 25.6945C72.932 26.7753 72.846 27.8158 73.5555 28.7977C73.939 29.329 73.9246 29.8969 73.4409 30.4501C72.8567 31.1243 72.4339 31.8973 73.2939 32.6667C74.1647 33.4471 74.9639 33.2127 75.8418 32.5275C79.0778 29.9995 82.6075 29.8749 85.908 32.0622C86.2986 32.3223 86.7465 32.5239 87.1981 32.6448C87.9506 32.8463 88.6136 32.6338 89.083 31.9596C89.556 31.2781 89.3159 30.626 88.8214 30.1497C87.9936 29.3546 88.3448 28.871 89.04 28.2628C90.0147 27.4128 90.5988 26.4602 89.6599 25.1156C88.8859 24.0054 87.8933 23.8076 86.6928 23.9505C85.5783 24.0824 85.0802 24.8078 84.7648 25.8154C84.5749 26.4272 84.6394 27.16 83.98 27.585C82.8082 28.3397 79.1566 27.8964 78.1962 26.7899C77.0351 25.4563 75.7881 24.4341 73.8888 24.969C73.8422 23.3936 75.6519 22.855 75.7988 21.3894L75.7666 21.4004C76.7377 20.9424 77.1176 20.0265 77.4903 19.0995L77.4759 19.1142C78.2105 18.5463 78.7158 17.8209 78.9165 16.8939L78.8986 16.9195C79.8446 16.2857 80.1672 15.1756 80.7047 14.2633C81.3246 13.2081 81.6185 13.3253 82.2743 14.1937C84.6251 17.3152 86.9615 20.4515 89.4485 23.4595C91.5521 25.9949 93.4728 28.7318 96.0566 30.8422ZM69.7319 54.8293C69.8036 56.108 69.8645 57.8776 70.015 59.64C70.4271 64.3956 71.1581 69.0743 73.534 73.3061C74.7847 75.5337 76.5693 76.8747 79.1996 76.7135C82.2098 76.5303 84.5964 75.2772 86.0083 72.4487C86.7967 70.866 87.2482 69.1806 87.5134 67.411C88.4129 61.4316 88.4021 55.3826 88.8322 49.3702C89.0902 45.787 88.6494 42.1671 87.2661 38.789C86.1015 35.9422 84.299 33.8135 80.9914 33.59C77.1821 33.3299 74.2866 35.1728 72.5199 39.0089C70.2766 43.8708 69.8107 49.0661 69.7319 54.8293Z" fill="#EAE239"/>
<path d="M71.7172 26.5811C70.4988 28.1382 69.2446 29.6587 67.6069 30.7872C67.098 30.7909 66.7182 30.9447 66.7289 31.5603L66.754 31.5456C65.5571 31.4797 65.0661 32.5239 64.3244 33.165C63.3496 34.004 62.4358 35.0043 60.791 34.2715C62.7368 32.2088 64.6075 30.2376 66.4601 28.2518C66.9439 27.7315 67.4958 27.2296 67.4277 26.3979C68.621 26.1817 69.0797 25.0753 69.7212 24.2729C71.2872 22.3164 72.717 20.25 74.2221 18.2422C74.5374 17.8209 74.5661 17.3592 74.5912 16.8756C76.0318 16.326 76.1966 14.7396 77.0495 13.7064C77.501 13.1604 77.7089 12.3581 78.2321 11.9367C78.7266 11.541 78.5725 9.96558 79.601 10.757C80.3822 11.3578 81.5827 12.2298 80.3607 13.7283C79.6512 14.6003 78.7732 15.5566 78.9022 16.9049L78.9201 16.8792C77.8952 17.2493 77.4186 17.9931 77.4795 19.0995L77.4939 19.0849C76.3901 19.4366 75.9314 20.2976 75.7702 21.3858L75.8024 21.3748C74.3583 22.5435 73.0037 23.7893 72.4626 25.6908L72.4769 25.6725C71.8641 25.6651 71.7638 26.1011 71.7172 26.5811Z" fill="#EA2D25"/>
<path d="M102.213 64.2014C99.5004 65.993 96.3433 65.9894 93.3116 66.5243C96.1354 65.2163 99.3248 65.3189 102.213 64.2014Z" fill="#18150F"/>
<path d="M69.732 54.8293C69.8108 49.0661 70.2767 43.8708 72.5235 39.0052C74.2938 35.1691 77.1857 33.3299 80.995 33.5864C84.3026 33.8099 86.1051 35.9349 87.2698 38.7854C88.6495 42.1634 89.0902 45.7833 88.8358 49.3665C88.4058 55.3789 88.4165 61.4279 87.5171 67.4073C87.2519 69.1769 86.8039 70.8623 86.012 72.4451C84.6001 75.2735 82.2134 76.5266 79.2033 76.7098C76.5729 76.871 74.7883 75.53 73.5377 73.3024C71.1618 69.0743 70.4308 64.3956 70.0186 59.6363C69.8646 57.8776 69.8036 56.108 69.732 54.8293Z" fill="#18150F"/>
<path d="M73.8888 24.9653C75.7881 24.4304 77.0388 25.4526 78.1963 26.7863C79.1567 27.8928 82.8083 28.3397 83.9801 27.5813C84.6395 27.1563 84.575 26.4235 84.7649 25.8117C85.0767 24.8041 85.5748 24.0787 86.6928 23.9468C87.8933 23.8039 88.8824 24.0018 89.66 25.1119C90.5989 26.4565 90.0184 27.4091 89.0401 28.2591C88.3448 28.8673 87.9937 29.351 88.8215 30.146C89.316 30.6187 89.5525 31.2745 89.0831 31.956C88.6136 32.6301 87.9507 32.8426 87.1981 32.6411C86.7466 32.5202 86.2986 32.3187 85.908 32.0585C82.6076 29.8712 79.0742 29.9958 75.8419 32.5238C74.9639 33.209 74.1648 33.4471 73.294 32.6631C72.4339 31.89 72.8568 31.1206 73.4409 30.4465C73.9211 29.8932 73.9354 29.3253 73.5556 28.7941C72.846 27.8085 72.932 26.7716 73.1972 25.6908L73.1757 25.7054C73.6452 25.6761 73.8028 25.3354 73.9139 24.9434L73.8888 24.9653ZM87.492 32.1282C87.965 32.2014 88.2983 31.9523 88.5563 31.6006C88.8788 31.1646 88.6745 30.7322 88.3305 30.4831C86.9831 29.5048 87.6031 28.8014 88.5133 27.9477C89.8822 26.6654 89.5274 24.9287 87.8718 24.3791C86.7215 23.9981 85.4637 24.8225 85.2415 26.3759C85.0193 27.9111 84.2775 28.2738 82.862 28.3984C80.4288 28.6109 78.2858 28.5156 76.7055 26.2074C76.1931 25.46 75.247 24.8188 74.24 25.7494C73.294 26.6214 73.4373 27.6363 74.0824 28.5413C74.6736 29.3656 74.8385 29.9702 73.9533 30.6846C73.5305 31.0253 73.3334 31.6628 73.7204 32.1611C74.1827 32.762 74.903 32.6374 75.3115 32.1831C77.3434 29.9372 80.0597 30.2742 82.6327 29.9995C83.7722 29.8786 84.7291 29.9885 85.4923 30.9887C85.9833 31.6299 86.7251 31.9303 87.492 32.1282Z" fill="#18150F"/>
<path d="M72.459 25.6981C73.0002 23.7966 74.3547 22.5509 75.7989 21.3821C75.6555 22.8513 73.8423 23.3899 73.8889 24.9617L73.9104 24.9397C73.3334 24.8554 73.0073 25.0313 73.1722 25.7018L73.1937 25.6871C72.9428 25.361 72.7027 25.6651 72.459 25.6981Z" fill="#982B27"/>
<path d="M75.7666 21.3931C75.9279 20.3049 76.3865 19.4439 77.4903 19.0922C77.1176 20.0192 76.7377 20.9388 75.7666 21.3931Z" fill="#982B27"/>
<path d="M77.476 19.1069C77.415 18.0004 77.8917 17.2566 78.9165 16.8866C78.7159 17.8172 78.2106 18.539 77.476 19.1069Z" fill="#982B27"/>
<path d="M71.7172 26.5811C71.7638 26.1011 71.8605 25.6688 72.4698 25.6835C72.4626 26.1927 72.072 26.3686 71.7172 26.5811Z" fill="#982B27"/>
<path d="M66.7289 31.5639C66.7217 30.9484 67.1016 30.7945 67.6069 30.7909C67.4349 31.1865 67.2664 31.5932 66.7289 31.5639Z" fill="#982B27"/>
<path d="M87.492 32.1282C86.7251 31.9303 85.9833 31.6299 85.4959 30.9887C84.7327 29.9885 83.7758 29.8786 82.6363 29.9995C80.0633 30.2743 77.347 29.9408 75.3151 32.1831C74.9066 32.6338 74.1863 32.762 73.724 32.1611C73.3406 31.6629 73.5377 31.0253 73.957 30.6846C74.8421 29.9665 74.6737 29.3656 74.086 28.5413C73.4409 27.6399 73.2976 26.6214 74.2436 25.7494C75.2506 24.8225 76.1967 25.46 76.7091 26.2074C78.2895 28.5156 80.4324 28.6109 82.8656 28.3984C84.2811 28.2738 85.0229 27.9111 85.2451 26.3759C85.4673 24.8225 86.7287 23.9981 87.8754 24.3791C89.531 24.9287 89.8858 26.6654 88.5169 27.9477C87.6066 28.8014 86.9867 29.5048 88.3341 30.4831C88.6781 30.7322 88.8824 31.1646 88.5599 31.6006C88.3019 31.9523 87.965 32.2014 87.492 32.1282Z" fill="#F2E6E4"/>
<path d="M73.1721 25.7018C73.0073 25.0313 73.3334 24.8591 73.9103 24.9397C73.7992 25.3317 73.6416 25.6725 73.1721 25.7018Z" fill="#EAE239"/>
<path d="M138.224 62.7579L138.192 64.1795C134.888 67.9239 132.616 69.7961 131.372 69.7961C130.111 69.7961 129.477 69.2246 129.477 68.0851C129.477 67.3963 129.735 66.5206 130.251 65.4545C130.767 64.3883 131.562 63.1353 132.634 61.6954C131.265 62.8568 129.96 64.1391 128.721 65.5351C127.921 66.462 127.122 67.3743 126.323 68.2793C125.671 68.9681 125.144 69.3125 124.746 69.3125C123.883 69.3125 123.453 68.8618 123.453 67.9569C123.453 67.334 123.779 66.3961 124.431 65.1504C124.958 64.1392 125.85 62.6223 127.115 60.5999C125.621 61.8492 124.252 63.2452 123.012 64.795C122.234 65.8502 121.453 66.8944 120.676 67.9239C120.066 68.7409 119.572 69.1513 119.192 69.1513C118.138 69.1513 117.615 67.8726 117.615 65.3116C117.615 64.4945 117.701 63.8387 117.87 63.3441C117.974 63.0217 118.26 62.5051 118.722 61.7943C119.461 60.6548 120.073 59.8268 120.568 59.3102C121.063 58.7936 121.532 58.5371 121.973 58.5371C123.044 58.5371 123.582 58.7753 123.582 59.2479C123.582 59.5264 123.413 59.9037 123.076 60.3764C122.001 61.688 121.023 62.8934 120.142 63.9926L120.077 65.0588C122.055 63.0144 123.381 61.6587 124.055 60.9919C125.234 59.8305 126.205 58.9695 126.975 58.4089C127.742 57.8483 128.369 57.5699 128.853 57.5699C129.591 57.5699 129.957 57.9692 129.957 58.7643C129.957 59.1966 129.821 59.6986 129.545 60.2811C129.272 60.8637 128.459 62.2596 127.115 64.4762C131.491 60.2152 134.017 58.0865 134.691 58.0865C134.816 58.0865 134.985 58.2257 135.196 58.5042C135.658 59.1087 135.891 59.6546 135.891 60.1492C135.891 60.4277 135.712 60.8014 135.354 61.263C134.995 61.7247 134.723 62.0764 134.533 62.3109C133.333 63.7948 132.734 64.8609 132.734 65.5058C132.734 65.6999 132.813 65.8648 132.971 66.0077C133.128 66.1469 133.304 66.2165 133.49 66.2165C133.888 66.2165 134.49 65.9161 135.289 65.3116C135.959 64.7913 136.938 63.9413 138.224 62.7579Z" fill="white"/>
<path d="M146.24 62.7249L146.273 64.1501C143.517 67.6528 141.317 69.4041 139.675 69.4041C138.812 69.4041 138.135 69.034 137.64 68.2903C137.145 67.5465 136.898 66.4987 136.898 65.143C136.898 63.9376 137.142 62.8421 137.626 61.8492C138.109 60.86 138.876 59.8341 139.93 58.768C140.983 57.7018 141.94 57.1705 142.804 57.1705C143.499 57.1705 143.847 57.471 143.847 58.0755C143.847 58.6764 143.51 59.4568 142.836 60.4167C142.162 61.3729 141.12 62.4648 139.711 63.6922C139.607 64.1208 139.554 64.4762 139.554 64.7583C139.554 65.7915 140.059 66.3081 141.069 66.3081C141.575 66.3081 142.252 66.0224 143.105 65.4471C143.951 64.8683 144.997 63.9633 146.24 62.7249ZM143.116 55.302C143.116 54.5912 143.395 53.9317 143.951 53.3162C144.51 52.7043 145.094 52.3965 145.703 52.3965C146.355 52.3965 146.681 52.7519 146.681 53.4627C146.681 54.0636 146.409 54.7048 145.861 55.3826C145.312 56.0604 144.757 56.3975 144.187 56.3975C143.872 56.3975 143.614 56.2949 143.413 56.0897C143.216 55.8882 143.116 55.6244 143.116 55.302Z" fill="white"/>
<path d="M144.915 64.0146C146.534 60.3361 148.039 58.4968 149.43 58.4968C149.849 58.4968 150.215 58.5664 150.519 58.7093C150.824 58.8486 150.978 59.0171 150.978 59.2113C150.978 59.6216 150.071 60.8747 148.262 62.974C147.713 63.6006 147.441 64.2381 147.441 64.8866C149.484 62.5307 151.408 60.6292 153.218 59.182C154.712 57.9949 155.733 57.3977 156.278 57.3977C156.532 57.3977 156.762 57.6029 156.973 58.0095C157.185 58.4199 157.289 58.8815 157.289 59.3981C157.289 59.8708 157.088 60.3507 156.69 60.8344C156.289 61.318 155.88 61.798 155.457 62.2706C155.056 62.8092 154.708 63.3587 154.415 63.9157C153.992 64.7107 153.784 65.2603 153.784 65.5607C153.784 66.0114 153.995 66.2385 154.415 66.2385C154.687 66.2385 155.192 65.9491 155.93 65.3665C156.665 64.7876 157.665 63.8937 158.93 62.6883L158.962 64.1391C155.572 67.9056 153.322 69.7888 152.207 69.7888C151.702 69.7888 151.297 69.5909 150.992 69.1952C150.688 68.7996 150.534 68.2683 150.534 67.6051C150.534 66.3411 151.458 64.4139 153.311 61.8199C152.175 62.8971 150.408 64.9086 148.007 67.8543C147.355 68.6493 146.871 69.0487 146.556 69.0487C146.072 69.0487 145.671 68.675 145.355 67.9276C145.04 67.1801 144.882 66.1653 144.882 64.8866L144.915 64.0146Z" fill="white"/>
<path d="M166.222 64.5642C165.043 65.9747 163.803 67.1179 162.499 67.9935C161.445 68.697 160.678 69.0524 160.195 69.0524C159.564 69.0524 159.016 68.6237 158.553 67.7664C158.091 66.909 157.858 65.8795 157.858 64.6741C157.858 63.879 158.102 63.0583 158.586 62.212C159.069 61.3656 159.765 60.5742 160.668 59.8451C163.549 57.5479 165.688 56.4011 167.075 56.4011C167.559 56.4011 167.978 56.4964 168.336 56.6906C168.695 56.8847 168.874 57.0973 168.874 57.3354C168.874 58.0645 167.516 59.127 164.803 60.5193C163.162 61.3546 162.004 62.0947 161.331 62.7396C160.467 63.5529 160.037 64.4652 160.037 65.4728C160.037 65.7293 160.119 65.9125 160.288 66.0187C160.456 66.125 160.614 66.1799 160.761 66.1799C161.814 66.1799 163.37 64.9892 165.434 62.6113C166.233 61.6477 167.043 60.6732 167.863 59.6876C168.516 58.9585 169.021 58.5958 169.379 58.5958C169.612 58.5958 169.809 58.757 169.978 59.0794C170.146 59.4018 170.229 59.7902 170.229 60.2408C170.229 60.6072 170.143 61.0139 169.978 61.4682C169.913 61.6184 169.684 62.135 169.283 63.018L167.387 67.0189C168.272 66.3741 169.028 65.8025 169.659 65.3079C170.669 64.5129 171.648 63.6629 172.594 62.7579V64.2088C171.755 65.0698 170.415 66.2862 168.569 67.8543C167.48 68.7812 166.527 69.6093 165.71 70.3384C164.724 72.2546 163.635 73.9216 162.442 75.3395C160.704 77.4279 159.424 78.4684 158.607 78.4684C158.106 78.4684 157.855 78.168 157.855 77.5635C157.855 76.7244 158.335 75.6143 159.295 74.2404C160.424 72.6466 162.001 70.9905 164.026 69.2685C164.316 68.8399 164.656 68.2243 165.043 67.4293C165.434 66.6416 165.824 65.6816 166.222 64.5642Z" fill="white"/>
<path d="M181.184 62.7579L181.216 64.1465C177.808 67.847 175.575 69.6972 174.525 69.6972C173.662 69.6972 172.938 69.2246 172.347 68.2756C171.759 67.3304 171.461 66.2092 171.461 64.9195C171.461 63.52 171.913 61.7906 172.82 59.7242C173.83 57.4233 175.238 55.1517 177.048 52.9131C179.467 49.9234 181.205 48.4286 182.255 48.4286C182.674 48.4286 182.886 48.806 182.886 49.5571C182.886 51.7077 182.191 53.9463 180.804 56.2692C179.352 58.702 177.267 60.9589 174.554 63.0473V63.6922C174.554 65.6706 175.081 66.6599 176.131 66.6599C176.765 66.6599 178.446 65.3592 181.184 62.7579ZM175.185 60.5632C176.532 59.4458 177.682 58.1048 178.643 56.544C179.6 54.9832 180.363 53.2136 180.933 51.2351C178.173 54.2688 176.26 57.3794 175.185 60.5632Z" fill="white"/>
<path d="M182.699 64.2967V64.4579C182.699 65.1907 182.882 65.7696 183.251 66.1909C183.62 66.6123 184.118 66.8211 184.749 66.8211C185.527 66.8211 186.466 66.495 187.559 65.8465C188.781 65.1321 190.053 64.1025 191.379 62.7542V64.1795C188.222 67.7883 185.52 69.5946 183.266 69.5946C182.13 69.5946 181.252 69.2209 180.628 68.4771C180.008 67.7334 179.696 66.6599 179.696 65.2566C179.696 63.2085 180.617 61.2594 182.459 59.4165C184.301 57.5735 186.272 56.6503 188.379 56.6503C189.874 56.6503 190.619 57.1266 190.619 58.0755C190.619 59.1124 189.935 60.2225 188.566 61.4096C187.032 62.7542 185.075 63.7142 182.699 64.2967ZM182.825 62.8861C186.401 61.2301 188.189 59.8634 188.189 58.7863C188.189 58.5481 188.114 58.4309 187.967 58.4309C187.419 58.4309 186.674 58.7753 185.728 59.4641C184.509 60.3471 183.538 61.4865 182.825 62.8861Z" fill="white"/>
<path d="M191.662 68.9608C191.662 68.3855 192.067 67.7187 192.877 66.9603C193.686 66.2019 194.357 65.8245 194.88 65.8245C195.364 65.8245 195.607 66.092 195.607 66.6232C195.607 67.1545 195.27 67.7957 194.597 68.5431C193.859 69.3748 193.167 69.7925 192.515 69.7925C191.945 69.7925 191.662 69.514 191.662 68.9608Z" fill="white"/>
<path d="M210.475 62.7579L210.508 64.1795C207.247 67.9679 204.699 69.8584 202.868 69.8584C201.982 69.8584 201.183 69.3528 200.47 68.3416C199.753 67.3304 199.395 66.1359 199.395 64.7583C199.395 62.7139 200.406 60.8307 202.427 59.1087C203.33 58.3136 204.29 57.6835 205.301 57.2218C206.311 56.7602 207.089 56.5293 207.637 56.5293C208.605 56.5293 209.089 56.969 209.089 57.852C209.089 58.691 208.687 59.6216 207.888 60.6438C207.089 61.6661 206.447 62.1753 205.964 62.1753C205.523 62.1753 205.301 61.8089 205.301 61.0762C203.595 62.1314 202.387 63.2049 201.671 64.304V64.6264C201.671 66.0883 202.312 66.8211 203.595 66.8211C204.52 66.8211 205.552 66.4767 206.688 65.7879C207.824 65.1027 209.085 64.0915 210.475 62.7579Z" fill="white"/>
<path d="M216.474 67.2754C215.116 68.8252 213.772 69.5983 212.436 69.5983C211.518 69.5983 210.733 69.1879 210.088 68.3672C209.443 67.5465 209.117 66.4584 209.117 65.0991C209.117 64.1941 209.361 63.2342 209.845 62.2193C210.329 61.2044 211.024 60.2665 211.927 59.4055C212.683 58.6727 213.489 58.1048 214.342 57.7054C215.195 57.3061 215.969 57.1082 216.661 57.1082C217.27 57.1082 217.793 57.2328 218.223 57.4783C218.653 57.7274 218.872 57.9802 218.872 58.2367C218.872 58.2807 218.807 58.3759 218.682 58.5261C218.556 58.6764 218.427 58.8376 218.302 59.0098C218.976 59.0098 219.312 59.5154 219.312 60.5266C219.312 62.0324 218.743 63.7215 217.607 65.5937C218.09 65.5937 218.675 65.3482 219.359 64.8499C220.043 64.3553 220.889 63.6006 221.9 62.5893L221.867 64.2014C220.846 65.2346 219.957 66.0077 219.201 66.5243C218.445 67.0409 217.761 67.2974 217.141 67.2974L216.474 67.2754ZM214.894 65.8502V64.8463C214.894 63.6995 215.421 62.1314 216.471 60.1456C214.933 60.7941 213.683 61.7137 212.715 62.9008C211.852 63.9596 211.421 64.9232 211.421 65.7879C211.421 66.6306 211.823 67.0519 212.629 67.0519C213.375 67.0482 214.131 66.6489 214.894 65.8502Z" fill="white"/>
<path d="M241 62.7579L240.968 64.1795C237.664 67.9239 235.392 69.7961 234.148 69.7961C232.887 69.7961 232.253 69.2246 232.253 68.0851C232.253 67.3963 232.511 66.5206 233.027 65.4545C233.543 64.3883 234.338 63.1353 235.41 61.6954C234.041 62.8568 232.736 64.1391 231.496 65.5351C230.697 66.462 229.898 67.3743 229.099 68.2793C228.447 68.9681 227.92 69.3125 227.522 69.3125C226.659 69.3125 226.229 68.8618 226.229 67.9569C226.229 67.334 226.555 66.3961 227.207 65.1504C227.734 64.1392 228.626 62.6223 229.891 60.5999C228.397 61.8492 227.028 63.2452 225.788 64.795C225.01 65.8502 224.229 66.8944 223.451 67.9239C222.842 68.7409 222.348 69.1513 221.968 69.1513C220.914 69.1513 220.391 67.8726 220.391 65.3116C220.391 64.4945 220.477 63.8387 220.645 63.3441C220.749 63.0217 221.036 62.5051 221.498 61.7943C222.237 60.6548 222.849 59.8268 223.344 59.3102C223.838 58.7936 224.308 58.5371 224.749 58.5371C225.82 58.5371 226.358 58.7753 226.358 59.2479C226.358 59.5264 226.189 59.9037 225.852 60.3764C224.777 61.688 223.799 62.8934 222.917 63.9926L222.853 65.0588C224.831 63.0144 226.157 61.6587 226.831 60.9919C228.01 59.8305 228.981 58.9695 229.751 58.4089C230.518 57.8483 231.145 57.5699 231.629 57.5699C232.367 57.5699 232.733 57.9692 232.733 58.7643C232.733 59.1966 232.597 59.6986 232.321 60.2811C232.048 60.8637 231.235 62.2596 229.891 64.4762C234.266 60.2152 236.793 58.0865 237.467 58.0865C237.592 58.0865 237.76 58.2257 237.972 58.5042C238.434 59.1087 238.667 59.6546 238.667 60.1492C238.667 60.4277 238.488 60.8014 238.13 61.263C237.771 61.7247 237.499 62.0764 237.309 62.3109C236.108 63.7948 235.51 64.8609 235.51 65.5058C235.51 65.6999 235.589 65.8648 235.746 66.0077C235.904 66.1469 236.08 66.2165 236.266 66.2165C236.664 66.2165 237.266 65.9161 238.065 65.3116C238.739 64.7913 239.717 63.9413 241 62.7579Z" fill="white"/>
<path d="M116.723 41.6322C116.723 41.6322 114.906 46.4977 114.161 49.1723L113.781 47.0913L115.637 41.907" fill="#332B18"/>
<path d="M111.466 63.2708C111.466 63.2708 111.068 66.2275 111.237 69.0524L110.488 67.8946C110.488 67.8946 110.459 65.3665 110.792 62.5454" fill="#332B18"/>
<path d="M93.3653 15.0986C93.3653 15.0986 96.4149 18.6306 97.9558 19.1618L96.4221 19.0849L92.8708 15.5639" fill="#982B27"/>
<path d="M95.7448 29.743L99.4108 33.4068L97.3395 32.5788L95.0173 29.743" fill="#982B27"/>
<path d="M84.1199 2.43638L89.7173 6.90627L90.2584 6.40798L84.8151 2.14694" fill="#982B27"/>
<path d="M80.1098 15.4064C80.1098 15.4064 71.9609 28.6365 63.9445 34.3448V33.5021C63.9445 33.5021 74.5697 23.6867 79.3179 15.1462" fill="#982B27"/>
<path d="M75.7989 15.879L74.2257 18.2459L73.6631 17.9967L75.1037 15.7288" fill="#982B27"/>
<path d="M68.9794 25.3134L66.4602 28.2555L66.2631 27.4238L68.2018 25.3134" fill="#982B27"/>
<path d="M74.1289 23.9834L72.5594 25.8703H73.1506L74.4335 24.6026" fill="#EAE239"/>
<path d="M73.061 26.321C73.061 26.321 73.1398 24.6356 75.0391 24.8225L73.061 26.321Z" fill="#332B18"/>
</svg>
